<svg xmlns="http://www.w3.org/2000/svg" viewBox="0 0 298.35 83.42"><defs><style>.cls-1{fill:#1d1d1b;}.cls-2{fill:#009fe3;}.cls-10,.cls-11,.cls-12,.cls-13,.cls-14,.cls-15,.cls-16,.cls-17,.cls-18,.cls-19,.cls-20,.cls-21,.cls-22,.cls-23,.cls-24,.cls-3,.cls-4,.cls-5,.cls-6,.cls-7,.cls-8,.cls-9{fill:#fff;}.cls-3{opacity:0;}.cls-4{opacity:0.02;}.cls-5{opacity:0.05;}.cls-6{opacity:0.07;}.cls-7{opacity:0.1;}.cls-8{opacity:0.12;}.cls-9{opacity:0.14;}.cls-10{opacity:0.17;}.cls-11{opacity:0.19;}.cls-12{opacity:0.21;}.cls-13{opacity:0.24;}.cls-14{opacity:0.26;}.cls-15{opacity:0.29;}.cls-16{opacity:0.31;}.cls-17{opacity:0.33;}.cls-18{opacity:0.36;}.cls-19{opacity:0.38;}.cls-20{opacity:0.4;}.cls-21{opacity:0.43;}.cls-22{opacity:0.45;}.cls-23{opacity:0.48;}.cls-24{opacity:0.5;}.cls-25{fill:#1d1e1b;}</style></defs><g id="Layer_2" data-name="Layer 2"><g id="Layer_1-2" data-name="Layer 1"><path class="cls-1" d="M93.63,8.66a39.66,39.66,0,0,1,52.31,7.42l-12.49,9a24.43,24.43,0,0,0-17.84-7.76,24.39,24.39,0,0,0-22,13.84Z"/><path class="cls-1" d="M115.6,3a39.12,39.12,0,0,1,28.87,12.92l-10.91,7.85a25.38,25.38,0,0,0-38.92,3.66V9.2a38.54,38.54,0,0,1,21-6.2m0-2a40.75,40.75,0,0,0-23,7.13l0,29.29a23.36,23.36,0,0,1,40.65-11l14.09-10.15A40.92,40.92,0,0,0,115.6,1Z"/><path class="cls-1" d="M115.65,81.42a39.59,39.59,0,0,1-22-6.64l0-22.49a24.58,24.58,0,0,0,22,13.8A24.43,24.43,0,0,0,131.72,60l13.73,7.88a39.58,39.58,0,0,1-29.57,13.52Z"/><path class="cls-1" d="M94.67,56a25.58,25.58,0,0,0,21,11.09,25.42,25.42,0,0,0,16.19-5.85l12,6.91a38.63,38.63,0,0,1-28,12.27h-.24a38.57,38.57,0,0,1-21-6.18l0-18.24m-2-9.9,0,29.22a40.85,40.85,0,0,0,23,7.1h.24A40.58,40.58,0,0,0,147,67.63l-15.41-8.84a23.37,23.37,0,0,1-38.36-10.4c-.23-.76-.41-1.53-.56-2.29Z"/><path class="cls-1" d="M41.71,81.42a39.71,39.71,0,1,1,27.84-68c.41.4.81.82,1.2,1.24s.81.89,1.2,1.34l.25.31a39.57,39.57,0,0,1,0,50.78l-.2.25q-.59.69-1.2,1.35c-.39.42-.78.83-1.19,1.23A39.44,39.44,0,0,1,41.71,81.42Zm0-64.09A24.41,24.41,0,0,0,17.33,41.71a25.53,25.53,0,0,0,.28,3.71c.13.8.29,1.6.49,2.38a25,25,0,0,0,1.15,3.39,24.48,24.48,0,0,0,7,9.32c.6.5,1.23,1,1.88,1.41q.48.33,1,.63a24.3,24.3,0,0,0,25.26,0q.51-.3,1-.63c.65-.44,1.28-.91,1.88-1.41a25.18,25.18,0,0,0,2.54-2.42,24.44,24.44,0,0,0,4.42-6.9,25,25,0,0,0,1.15-3.39c.2-.78.36-1.58.49-2.38a25.53,25.53,0,0,0,.28-3.71A24.41,24.41,0,0,0,41.71,17.33Z"/><path class="cls-1" d="M41.71,3A38.47,38.47,0,0,1,68.85,14.15c.37.36.75.76,1.17,1.2s.78.85,1.17,1.31l.1.13.14.17a38.56,38.56,0,0,1,0,49.5l-.12.15-.08.09c-.39.46-.78.9-1.16,1.32s-.8.84-1.17,1.2A38.7,38.7,0,1,1,41.71,3m0,64.09a25.26,25.26,0,0,0,13.15-3.68c.35-.21.69-.43,1-.66.67-.46,1.33-1,2-1.46a28.58,28.58,0,0,0,2.64-2.52,25.12,25.12,0,0,0,2.26-2.88,26.42,26.42,0,0,0,2.34-4.31A25.42,25.42,0,0,0,66.29,48c.21-.81.38-1.64.51-2.47a26.19,26.19,0,0,0,.29-3.86,25.38,25.38,0,0,0-50.76,0,26.19,26.19,0,0,0,.29,3.86c.13.83.3,1.66.51,2.47a24.17,24.17,0,0,0,1.2,3.54,25.53,25.53,0,0,0,4.6,7.19,28.58,28.58,0,0,0,2.64,2.52c.63.51,1.29,1,2,1.46.33.23.68.45,1,.66a25.26,25.26,0,0,0,13.15,3.68M41.71,1a40.71,40.71,0,1,0,28.6,69.65c.42-.42.83-.84,1.23-1.27s.82-.92,1.22-1.39l.21-.25h0a40.57,40.57,0,0,0,0-52.06h0l-.26-.31q-.6-.7-1.23-1.38c-.4-.43-.81-.86-1.23-1.27A40.56,40.56,0,0,0,41.71,1Zm0,64.09A23.22,23.22,0,0,1,29.6,61.7c-.33-.2-.64-.4-1-.61a21.65,21.65,0,0,1-1.8-1.35,23.25,23.25,0,0,1-2.44-2.32,24.26,24.26,0,0,1-2.08-2.65,23.05,23.05,0,0,1-2.16-4,24.36,24.36,0,0,1-1.1-3.25c-.19-.75-.35-1.51-.47-2.28a23.38,23.38,0,1,1,46.22,0c-.12.77-.28,1.53-.47,2.28a24.36,24.36,0,0,1-1.1,3.25,23.05,23.05,0,0,1-2.16,4A24.26,24.26,0,0,1,59,57.42a23.25,23.25,0,0,1-2.44,2.32q-.87.72-1.8,1.35c-.31.21-.63.41-1,.61a23.22,23.22,0,0,1-12.11,3.39Z"/><path class="cls-1" d="M73.77,81.42V72A44,44,0,0,0,74,11.6V2H89.4V81.42Z"/><path class="cls-1" d="M88.4,3v.07h0V80.42H74.77v-8a45.11,45.11,0,0,0,11-20.75A45,45,0,0,0,75,11.21V3H88.4m2-2H73V12a43,43,0,0,1,0,59.42l-.21.22V82.42H90.39V5.07h0V1Z"/><path class="cls-2" d="M47.5,35.52c-2.1-3-4.26-6-5.4-9.91-1.13,3.92-3.3,7-5.39,9.91-2.61,3.68-5.08,7.15-5.08,11.82a10.48,10.48,0,0,0,21,0C52.58,42.67,50.11,39.2,47.5,35.52Z"/><path class="cls-3" d="M50.53,44.21c.72-.39,1.17,4.72-1.1,8.51-.66,1.11-3.73,4.08-4.25,3.51S46.35,52.87,47,51.6C48.3,49.27,49.1,45,50.53,44.21Z"/><path class="cls-4" d="M50.48,44.54c.7-.37,1.11,4.53-1.07,8.17-.64,1.08-3.61,3.95-4.1,3.41s1.13-3.23,1.79-4.45C48.32,49.42,49.11,45.27,50.48,44.54Z"/><path class="cls-5" d="M50.43,44.88c.67-.35,1,4.34-1,7.83-.63,1-3.49,3.81-4,3.3s1.1-3.1,1.74-4.28C48.35,49.57,49.12,45.56,50.43,44.88Z"/><path class="cls-6" d="M50.38,45.21c.65-.33,1,4.15-1,7.5-.61,1-3.37,3.68-3.82,3.18s1.07-3,1.68-4.09C48.37,49.72,49.13,45.86,50.38,45.21Z"/><path class="cls-7" d="M50.33,45.55c.62-.32.94,4-1,7.16-.58,1-3.24,3.54-3.68,3.07s1-2.83,1.63-3.91C48.39,49.88,49.14,46.16,50.33,45.55Z"/><path class="cls-8" d="M50.28,45.88c.6-.3.88,3.76-.94,6.83-.56.95-3.12,3.4-3.53,3s1-2.7,1.56-3.74C48.42,50,49.15,46.46,50.28,45.88Z"/><path class="cls-9" d="M50.23,46.22c.58-.29.83,3.56-.91,6.49-.54.92-3,3.26-3.38,2.84s1-2.56,1.5-3.55C48.44,50.18,49.15,46.75,50.23,46.22Z"/><path class="cls-10" d="M50.19,46.55c.54-.27.76,3.37-.89,6.16-.52.88-2.87,3.12-3.24,2.73S47,53,47.51,52.07C48.46,50.33,49.16,47.05,50.19,46.55Z"/><path class="cls-11" d="M50.14,46.89c.52-.25.7,3.17-.86,5.82-.49.85-2.74,3-3.09,2.62s.9-2.31,1.39-3.2C48.49,50.48,49.17,47.35,50.14,46.89Z"/><path class="cls-12" d="M50.09,47.22c.49-.23.64,3-.83,5.49-.47.81-2.62,2.84-2.95,2.51s.87-2.18,1.34-3C48.51,50.64,49.18,47.65,50.09,47.22Z"/><path class="cls-13" d="M50,47.56c.47-.22.58,2.78-.8,5.15-.45.78-2.49,2.7-2.8,2.39s.83-2,1.27-2.83C48.53,50.79,49.19,47.94,50,47.56Z"/><path class="cls-14" d="M50,47.89c.45-.2.52,2.59-.77,4.82-.43.75-2.37,2.56-2.65,2.28s.79-1.91,1.21-2.66C48.56,50.94,49.2,48.24,50,47.89Z"/><path class="cls-15" d="M49.94,48.23c.42-.19.47,2.4-.73,4.48-.42.71-2.25,2.42-2.52,2.17s.77-1.78,1.16-2.48C48.58,51.09,49.21,48.54,49.94,48.23Z"/><path class="cls-16" d="M49.89,48.56c.4-.16.41,2.21-.7,4.15-.39.68-2.13,2.28-2.37,2.06s.73-1.65,1.1-2.3C48.6,51.24,49.22,48.84,49.89,48.56Z"/><path class="cls-17" d="M49.85,48.9c.37-.15.34,2-.68,3.81-.37.64-2,2.14-2.23,1.94s.7-1.51,1-2.12C48.62,51.4,49.23,49.14,49.85,48.9Z"/><path class="cls-18" d="M49.8,49.23c.34-.13.29,1.82-.65,3.48-.35.61-1.88,2-2.08,1.83s.66-1.38,1-1.94C48.65,51.55,49.24,49.44,49.8,49.23Z"/><path class="cls-19" d="M49.75,49.56c.32-.11.23,1.63-.62,3.15-.33.58-1.75,1.87-1.93,1.72s.62-1.25.92-1.77C48.67,51.7,49.25,49.74,49.75,49.56Z"/><path class="cls-20" d="M49.7,49.9c.3-.09.17,1.43-.59,2.81-.3.54-1.63,1.73-1.79,1.6s.6-1.11.87-1.58C48.69,51.85,49.26,50,49.7,49.9Z"/><path class="cls-21" d="M49.65,50.23c.27-.07.12,1.25-.56,2.48-.28.51-1.5,1.59-1.64,1.49s.56-1,.81-1.4C48.72,52,49.27,50.34,49.65,50.23Z"/><path class="cls-22" d="M49.6,50.57c.25-.06.06,1-.53,2.14a4.39,4.39,0,0,1-1.5,1.38c-.1-.06.53-.85.75-1.23C48.74,52.16,49.28,50.64,49.6,50.57Z"/><path class="cls-23" d="M49.55,50.9c.23,0,0,.86-.5,1.81A4.32,4.32,0,0,1,47.7,54c-.09,0,.49-.72.69-1C48.76,52.31,49.29,50.94,49.55,50.9Z"/><path class="cls-24" d="M49.51,51.24c.19,0-.06.66-.48,1.47a4.21,4.21,0,0,1-1.2,1.15c-.08,0,.46-.58.63-.86C48.79,52.46,49.3,51.25,49.51,51.24Z"/><path class="cls-25" d="M158.47,15a4.06,4.06,0,0,1-1.61-1.6,4.89,4.89,0,0,1-.57-2.4V7.89a4.83,4.83,0,0,1,.57-2.39,4.09,4.09,0,0,1,1.61-1.61,4.8,4.8,0,0,1,2.37-.57h1.81a4.84,4.84,0,0,1,2.38.57,4.06,4.06,0,0,1,1.6,1.61,4.83,4.83,0,0,1,.57,2.39V11a4.89,4.89,0,0,1-.57,2.4A4,4,0,0,1,165,15a4.84,4.84,0,0,1-2.38.57h-1.81A4.8,4.8,0,0,1,158.47,15Zm4.18-1.51a2,2,0,0,0,1.59-.72,2.75,2.75,0,0,0,.61-1.87V8a2.77,2.77,0,0,0-.61-1.87,2,2,0,0,0-1.59-.72h-1.81a2,2,0,0,0-1.59.72A2.82,2.82,0,0,0,158.64,8v2.87a2.8,2.8,0,0,0,.61,1.87,2,2,0,0,0,1.59.72Z"/><path class="cls-25" d="M176.58,12.61h-4.47l-1.06,2.78H168.6l4.67-11.93h1.06a1.47,1.47,0,0,1,1.5,1l4.24,10.91h-2.45Zm-3.84-2H176l-1.59-4.3h0Z"/><path class="cls-25" d="M182.53,14.48a3.91,3.91,0,0,1-1.06-2.92h2.32a2,2,0,0,0,.45,1.39,1.61,1.61,0,0,0,1.25.5h1.89a2.14,2.14,0,0,0,1.22-.32,1,1,0,0,0,.47-.84v-.58c0-.56-.41-.9-1.22-1l-3.14-.53a4.52,4.52,0,0,1-2.33-1,2.38,2.38,0,0,1-.79-1.85V6.36a2.75,2.75,0,0,1,.48-1.6,3.14,3.14,0,0,1,1.39-1.06,5.27,5.27,0,0,1,2.07-.38h1.92a4.14,4.14,0,0,1,2,.46,3.28,3.28,0,0,1,1.32,1.29A3.74,3.74,0,0,1,191.2,7h-2.32a1.65,1.65,0,0,0-.39-1.15,1.34,1.34,0,0,0-1-.44h-1.92a2,2,0,0,0-1.15.31,1,1,0,0,0-.44.82V7c0,.57.39.92,1.18,1.06l3.12.54a5,5,0,0,1,2.37,1,2.25,2.25,0,0,1,.82,1.79v1.12a2.63,2.63,0,0,1-.51,1.6,3.22,3.22,0,0,1-1.4,1.09,5.5,5.5,0,0,1-2.1.38h-2A4,4,0,0,1,182.53,14.48Z"/><path class="cls-25" d="M194.22,3.46h2.35V15.39h-2.35Z"/><path class="cls-25" d="M200.49,14.48a3.94,3.94,0,0,1-1.05-2.92h2.31a2,2,0,0,0,.46,1.39,1.6,1.6,0,0,0,1.25.5h1.89a2.14,2.14,0,0,0,1.22-.32,1,1,0,0,0,.47-.84v-.58c0-.56-.41-.9-1.23-1l-3.14-.53a4.49,4.49,0,0,1-2.32-1,2.39,2.39,0,0,1-.8-1.85V6.36a2.75,2.75,0,0,1,.49-1.6,3.05,3.05,0,0,1,1.38-1.06,5.34,5.34,0,0,1,2.07-.38h1.93a4.14,4.14,0,0,1,2,.46,3.28,3.28,0,0,1,1.32,1.29A3.85,3.85,0,0,1,209.17,7h-2.32a1.65,1.65,0,0,0-.39-1.15,1.34,1.34,0,0,0-1-.44h-1.93a2,2,0,0,0-1.15.31,1,1,0,0,0-.43.82V7c0,.57.39.92,1.17,1.06l3.12.54a4.91,4.91,0,0,1,2.37,1,2.22,2.22,0,0,1,.82,1.79v1.12a2.69,2.69,0,0,1-.5,1.6,3.31,3.31,0,0,1-1.41,1.09,5.43,5.43,0,0,1-2.1.38h-2A4,4,0,0,1,200.49,14.48Z"/><path class="cls-25" d="M156.81,20.66h2.38V32.74h-2.38Z"/><path class="cls-25" d="M161.44,20.73h2.1l5.73,8.12V20.73h2.3V32.66h-2.1l-5.73-8.11v8.11h-2.3Z"/><path class="cls-25" d="M177.6,22.78h-3.78V20.73h9.92v2.05H180v9.88H177.6Z"/><path class="cls-25" d="M186.45,32.22a1.51,1.51,0,0,1-.46-1.16V20.73h9.1v2.05h-6.75v2.76h6.24v2h-6.24v3h6.75v2h-7.45A1.61,1.61,0,0,1,186.45,32.22Z"/><path class="cls-25" d="M197.68,20.73H204a3.62,3.62,0,0,1,2.5.84,2.79,2.79,0,0,1,.95,2.2V25A2.44,2.44,0,0,1,207,26.5a3.05,3.05,0,0,1-1.46,1v0a2.6,2.6,0,0,1,.83.82,6.69,6.69,0,0,1,.56,1.28l1,3H205.4l-.9-2.83a2.46,2.46,0,0,0-.61-1.09,1.4,1.4,0,0,0-1-.35H200v4.27h-2.35Zm5.9,5.63A1.54,1.54,0,0,0,204.7,26a1.26,1.26,0,0,0,.41-1V23.87a1.06,1.06,0,0,0-.3-.79,1.13,1.13,0,0,0-.82-.3h-4v3.58Z"/><path class="cls-25" d="M210.23,20.73h2.09l5.73,8.12V20.73h2.3V32.66h-2.1l-5.72-8.11v8.11h-2.3Z"/><path class="cls-25" d="M230.44,29.89H226l-1.06,2.77h-2.46l4.67-11.93h1.06a1.47,1.47,0,0,1,1.5,1l4.25,10.91h-2.46Zm-3.83-2h3.2l-1.58-4.3h0Z"/><path class="cls-25" d="M237.28,22.78h-3.79V20.73h9.92v2.05h-3.78v9.88h-2.35Z"/><path class="cls-25" d="M245.83,20.73h2.36V32.66h-2.36Z"/><path class="cls-25" d="M253.29,32.23a4,4,0,0,1-1.6-1.6,4.89,4.89,0,0,1-.57-2.4V25.16a4.86,4.86,0,0,1,.57-2.39,4,4,0,0,1,1.6-1.6,4.84,4.84,0,0,1,2.38-.57h1.81a4.8,4.8,0,0,1,2.37.57,4,4,0,0,1,1.61,1.6,4.86,4.86,0,0,1,.57,2.39v3.07a4.89,4.89,0,0,1-.57,2.4,4.06,4.06,0,0,1-1.61,1.6,4.8,4.8,0,0,1-2.37.57h-1.81A4.84,4.84,0,0,1,253.29,32.23Zm4.19-1.51a2,2,0,0,0,1.59-.71,2.85,2.85,0,0,0,.61-1.88V25.27a2.83,2.83,0,0,0-.61-1.88,2,2,0,0,0-1.59-.71h-1.81a2,2,0,0,0-1.59.71,2.78,2.78,0,0,0-.61,1.88v2.86a2.8,2.8,0,0,0,.61,1.88,2,2,0,0,0,1.59.71Z"/><path class="cls-25" d="M264.79,20.73h2.1l5.72,8.12V20.73h2.31V32.66h-2.1l-5.73-8.11v8.11h-2.3Z"/><path class="cls-25" d="M285,29.89h-4.47l-1.06,2.77H277l4.67-11.93h1.06a1.49,1.49,0,0,1,1.5,1l4.24,10.91H286Zm-3.84-2h3.2l-1.58-4.3h0Z"/><path class="cls-25" d="M290,32.23a1.49,1.49,0,0,1-.46-1.15V20.73h2.36v9.89h6.47v2h-7.17A1.65,1.65,0,0,1,290,32.23Z"/><path class="cls-25" d="M158.38,49.51a3.89,3.89,0,0,1-1.54-1.6,4.91,4.91,0,0,1-.55-2.37V42.4a5,5,0,0,1,.56-2.38,3.92,3.92,0,0,1,1.56-1.59,4.72,4.72,0,0,1,2.35-.56h1.81a4.5,4.5,0,0,1,2.24.54,3.77,3.77,0,0,1,1.51,1.53,4.62,4.62,0,0,1,.54,2.27h-2.32a2.4,2.4,0,0,0-.54-1.64,1.8,1.8,0,0,0-1.43-.62h-1.81a1.89,1.89,0,0,0-1.54.7,2.88,2.88,0,0,0-.58,1.85v2.93a2.84,2.84,0,0,0,.57,1.85,1.77,1.77,0,0,0,1.48.71h1.84a1.83,1.83,0,0,0,1.48-.7,2.81,2.81,0,0,0,.57-1.84h2.31a5.24,5.24,0,0,1-.54,2.43,3.88,3.88,0,0,1-1.54,1.62,4.46,4.46,0,0,1-2.28.57h-1.84A4.67,4.67,0,0,1,158.38,49.51Z"/><path class="cls-25" d="M173.4,49.5a4,4,0,0,1-1.6-1.6,4.79,4.79,0,0,1-.58-2.4V42.43A4.78,4.78,0,0,1,171.8,40a4,4,0,0,1,1.6-1.6,4.84,4.84,0,0,1,2.38-.57h1.8a4.84,4.84,0,0,1,2.38.57,4,4,0,0,1,1.6,1.6,4.88,4.88,0,0,1,.57,2.39V45.5a4.89,4.89,0,0,1-.57,2.4,4,4,0,0,1-1.6,1.6,4.84,4.84,0,0,1-2.38.57h-1.8A4.84,4.84,0,0,1,173.4,49.5ZM177.58,48a2,2,0,0,0,1.6-.71,2.85,2.85,0,0,0,.6-1.88V42.54a2.83,2.83,0,0,0-.6-1.88,2,2,0,0,0-1.6-.71h-1.8a2,2,0,0,0-1.6.71,2.83,2.83,0,0,0-.6,1.88V45.4a2.85,2.85,0,0,0,.6,1.88,2,2,0,0,0,1.6.71Z"/><path class="cls-25" d="M187.11,38h2.1l5.73,8.12V38h2.3V49.93h-2.1l-5.73-8.11v8.11h-2.3Z"/><path class="cls-25" d="M202.55,38h8.94v2h-6.58v3.2h6v2h-6v4.63h-2.36Z"/><path class="cls-25" d="M216.51,49.49a1.55,1.55,0,0,1-.46-1.16V38h9.11v2h-6.75v2.76h6.24v2h-6.24v3h6.75v2h-7.45A1.65,1.65,0,0,1,216.51,49.49Z"/><path class="cls-25" d="M230,38h6.34a3.62,3.62,0,0,1,2.5.84,2.79,2.79,0,0,1,.95,2.2v1.19a2.47,2.47,0,0,1-.5,1.54,3.15,3.15,0,0,1-1.46,1v0a2.82,2.82,0,0,1,.83.82,6.75,6.75,0,0,1,.55,1.28l1,3h-2.43l-.91-2.82a2.44,2.44,0,0,0-.61-1.1,1.43,1.43,0,0,0-1-.35h-2.88v4.27H230Zm5.9,5.63a1.58,1.58,0,0,0,1.13-.39,1.29,1.29,0,0,0,.41-1V41.14a1.07,1.07,0,0,0-.31-.79,1.13,1.13,0,0,0-.82-.3h-4v3.58Z"/><path class="cls-25" d="M245.19,49.49a1.51,1.51,0,0,1-.46-1.16V38h9.1v2h-6.75v2.76h6.24v2h-6.24v3h6.75v2h-7.45A1.61,1.61,0,0,1,245.19,49.49Z"/><path class="cls-25" d="M258.64,38h2.09l5.73,8.12V38h2.3V49.93h-2.1l-5.72-8.11v8.11h-2.3Z"/><path class="cls-25" d="M275.83,49.51a3.92,3.92,0,0,1-1.55-1.6,5,5,0,0,1-.54-2.37V42.4a5,5,0,0,1,.55-2.38,3.88,3.88,0,0,1,1.57-1.59,4.71,4.71,0,0,1,2.34-.56H280a4.57,4.57,0,0,1,2.25.54,3.83,3.83,0,0,1,1.51,1.53,4.62,4.62,0,0,1,.54,2.27H282a2.36,2.36,0,0,0-.55-1.64A1.79,1.79,0,0,0,280,40H278.2a1.89,1.89,0,0,0-1.53.7,2.83,2.83,0,0,0-.58,1.85v2.93a2.89,2.89,0,0,0,.56,1.85,1.79,1.79,0,0,0,1.49.71H280a1.8,1.8,0,0,0,1.47-.7,2.81,2.81,0,0,0,.57-1.84h2.32a5.12,5.12,0,0,1-.55,2.43,3.86,3.86,0,0,1-1.53,1.62,4.49,4.49,0,0,1-2.28.57h-1.84A4.65,4.65,0,0,1,275.83,49.51Z"/><path class="cls-25" d="M289.71,49.49a1.51,1.51,0,0,1-.46-1.16V38h9.1v2H291.6v2.76h6.24v2H291.6v3h6.75v2H290.9A1.64,1.64,0,0,1,289.71,49.49Z"/><path class="cls-25" d="M156.86,75.78a4,4,0,0,1,.38-1.8,3.32,3.32,0,0,1,1.3-1.31l4.28-2.55a1.35,1.35,0,0,0,.49-.49,1.2,1.2,0,0,0,.18-.62v-.55a1,1,0,0,0-.35-.78,1.46,1.46,0,0,0-.93-.29h-1.59a1.26,1.26,0,0,0-1.05.49,2.25,2.25,0,0,0-.38,1.39h-2.38a4.07,4.07,0,0,1,1-2.93,3.62,3.62,0,0,1,2.78-1.06h1.62a4.45,4.45,0,0,1,1.92.4,3.07,3.07,0,0,1,1.29,1.12,3.11,3.11,0,0,1,.45,1.66V69a3.11,3.11,0,0,1-.39,1.6,3.36,3.36,0,0,1-1.21,1.15l-4.16,2.41a1.9,1.9,0,0,0-.63.54,1.12,1.12,0,0,0-.22.72h6.68V77.5h-9.08Z"/><path class="cls-25" d="M170.15,77.12a3.74,3.74,0,0,1-1.45-1.5,4.66,4.66,0,0,1-.52-2.22V69.53a4.73,4.73,0,0,1,.51-2.23,3.59,3.59,0,0,1,1.45-1.49,4.31,4.31,0,0,1,2.15-.53h1.83a4.16,4.16,0,0,1,2.11.53,3.64,3.64,0,0,1,1.42,1.49,4.73,4.73,0,0,1,.51,2.23V73.4a4.66,4.66,0,0,1-.5,2.22,3.58,3.58,0,0,1-1.41,1.5,4.2,4.2,0,0,1-2.13.52h-1.83A4.29,4.29,0,0,1,170.15,77.12Zm3.94-1.58a1.51,1.51,0,0,0,1.22-.58,2.44,2.44,0,0,0,.45-1.53V69.49a2.39,2.39,0,0,0-.45-1.52,1.48,1.48,0,0,0-1.22-.58h-1.76a1.57,1.57,0,0,0-1.28.58,2.29,2.29,0,0,0-.48,1.52v3.94a2.33,2.33,0,0,0,.48,1.53,1.6,1.6,0,0,0,1.28.58Z"/><path class="cls-25" d="M180.56,75.78a4,4,0,0,1,.38-1.8,3.32,3.32,0,0,1,1.3-1.31l4.28-2.55a1.35,1.35,0,0,0,.49-.49,1.2,1.2,0,0,0,.18-.62v-.55a1,1,0,0,0-.35-.78,1.46,1.46,0,0,0-.93-.29h-1.58a1.27,1.27,0,0,0-1.06.49,2.25,2.25,0,0,0-.38,1.39h-2.38a4.07,4.07,0,0,1,1-2.93,3.62,3.62,0,0,1,2.78-1.06h1.62a4.45,4.45,0,0,1,1.92.4,3.07,3.07,0,0,1,1.29,1.12,3.11,3.11,0,0,1,.45,1.66V69a3.11,3.11,0,0,1-.39,1.6A3.36,3.36,0,0,1,188,71.76l-4.16,2.41a1.9,1.9,0,0,0-.63.54,1.12,1.12,0,0,0-.22.72h6.68V77.5h-9.08Z"/><path class="cls-25" d="M191.63,75.78A3.91,3.91,0,0,1,192,74a3.29,3.29,0,0,1,1.29-1.31l4.28-2.55a1.28,1.28,0,0,0,.49-.49,1.2,1.2,0,0,0,.18-.62v-.55a1,1,0,0,0-.35-.78,1.41,1.41,0,0,0-.92-.29h-1.59a1.24,1.24,0,0,0-1,.49,2.19,2.19,0,0,0-.38,1.39h-2.39a4.07,4.07,0,0,1,1-2.93,3.6,3.6,0,0,1,2.77-1.06H197a4.43,4.43,0,0,1,1.91.4,3,3,0,0,1,1.29,1.12,3.11,3.11,0,0,1,.46,1.66V69a3.11,3.11,0,0,1-.39,1.6A3.4,3.4,0,0,1,199,71.76l-4.16,2.41a2,2,0,0,0-.63.54,1.18,1.18,0,0,0-.21.72h6.68V77.5h-9.08Z"/><polygon class="cls-25" points="239.08 65.71 237.46 70.06 240.7 70.06 239.1 65.71 239.08 65.71"/><path class="cls-25" d="M270.51,64.76h-1.83a2,2,0,0,0-1.61.73,2.83,2.83,0,0,0-.61,1.9v2.9a2.85,2.85,0,0,0,.61,1.9,2,2,0,0,0,1.61.72h1.83a2,2,0,0,0,1.62-.72,2.85,2.85,0,0,0,.61-1.9v-2.9a2.83,2.83,0,0,0-.61-1.9A2,2,0,0,0,270.51,64.76Z"/><path class="cls-25" d="M156.81,57.58v1.49h53.25v21h88.29V57.58Zm73,17.3h-7.27a1.68,1.68,0,0,1-1.21-.44,1.51,1.51,0,0,1-.46-1.16V62.8h2.38v10h6.56Zm12.58,0-1-2.81h-4.52l-1.07,2.81h-2.49L238,62.8h1.07a1.49,1.49,0,0,1,1.52,1l4.3,11Zm17.06-4.19a4.59,4.59,0,0,1-.55,2.24,3.92,3.92,0,0,1-1.56,1.54,4.69,4.69,0,0,1-2.28.55h-2a4.73,4.73,0,0,1-2.35-.57,3.92,3.92,0,0,1-1.58-1.62,5,5,0,0,1-.56-2.4V67.25a5.07,5.07,0,0,1,.56-2.41,3.91,3.91,0,0,1,1.59-1.61,4.78,4.78,0,0,1,2.37-.57H255a4.72,4.72,0,0,1,2.27.52,3.65,3.65,0,0,1,1.53,1.46,4.41,4.41,0,0,1,.55,2.2H257a2.12,2.12,0,0,0-.55-1.51,1.94,1.94,0,0,0-1.45-.57h-1.94a1.9,1.9,0,0,0-1.55.72,2.87,2.87,0,0,0-.59,1.87v3a2.89,2.89,0,0,0,.58,1.88,1.88,1.88,0,0,0,1.53.71h2a1.86,1.86,0,0,0,1.46-.64,2.23,2.23,0,0,0,.58-1.58v-.38h-3.35V68.23h5.7Zm15.67-.3a4.91,4.91,0,0,1-.58,2.43,4.07,4.07,0,0,1-1.62,1.62,4.83,4.83,0,0,1-2.41.58h-1.83a4.79,4.79,0,0,1-2.4-.58,4.16,4.16,0,0,1-1.63-1.62,5,5,0,0,1-.58-2.43V67.28a5,5,0,0,1,.58-2.42,4,4,0,0,1,1.63-1.62,4.79,4.79,0,0,1,2.4-.58h1.83a4.83,4.83,0,0,1,2.41.58,4,4,0,0,1,1.62,1.62,4.87,4.87,0,0,1,.58,2.42Zm14.71,1.52a2.69,2.69,0,0,1-.51,1.62,3.23,3.23,0,0,1-1.42,1.1,5.4,5.4,0,0,1-2.13.39h-2a4.05,4.05,0,0,1-3-1.06,4,4,0,0,1-1.07-3h2.35a2,2,0,0,0,.45,1.4,1.63,1.63,0,0,0,1.27.51h1.92a2.08,2.08,0,0,0,1.23-.32,1,1,0,0,0,.48-.85v-.59c0-.56-.42-.91-1.24-1.05L283,69.56a4.52,4.52,0,0,1-2.36-1,2.43,2.43,0,0,1-.8-1.87v-1a2.69,2.69,0,0,1,.49-1.61,3.13,3.13,0,0,1,1.4-1.08,5.43,5.43,0,0,1,2.1-.38h1.95a4.08,4.08,0,0,1,2,.46,3.38,3.38,0,0,1,1.34,1.31,3.82,3.82,0,0,1,.48,1.94h-2.35a1.64,1.64,0,0,0-.4-1.16,1.32,1.32,0,0,0-1.05-.45h-1.95a2,2,0,0,0-1.17.32,1,1,0,0,0-.44.82v.47c0,.58.4.93,1.19,1.07l3.16.55a5,5,0,0,1,2.4,1,2.25,2.25,0,0,1,.83,1.8Z"/></g></g></svg>