<svg xmlns="http://www.w3.org/2000/svg" viewBox="0 0 310.09 88.51"><defs><style>.cls-1,.cls-8{font-size:17.26px;font-family:BaiJamjuree-Bold, Bai Jamjuree;font-weight:700;}.cls-1,.cls-11,.cls-12,.cls-13,.cls-14,.cls-15,.cls-16,.cls-17,.cls-18,.cls-19,.cls-20,.cls-21,.cls-22,.cls-23,.cls-24,.cls-25,.cls-26,.cls-27,.cls-28,.cls-29,.cls-30,.cls-31,.cls-32,.cls-8,.cls-9{fill:#fff;}.cls-1{letter-spacing:0.04em;}.cls-2{letter-spacing:0.04em;}.cls-3,.cls-8{letter-spacing:0.06em;}.cls-4{letter-spacing:-0.04em;}.cls-5{letter-spacing:0.05em;}.cls-6{letter-spacing:0.06em;}.cls-7{letter-spacing:0.19em;}.cls-10{fill:#009fe3;}.cls-11{opacity:0;}.cls-12{opacity:0.02;}.cls-13{opacity:0.05;}.cls-14{opacity:0.07;}.cls-15{opacity:0.1;}.cls-16{opacity:0.12;}.cls-17{opacity:0.14;}.cls-18{opacity:0.17;}.cls-19{opacity:0.19;}.cls-20{opacity:0.21;}.cls-21{opacity:0.24;}.cls-22{opacity:0.26;}.cls-23{opacity:0.29;}.cls-24{opacity:0.31;}.cls-25{opacity:0.33;}.cls-26{opacity:0.36;}.cls-27{opacity:0.38;}.cls-28{opacity:0.4;}.cls-29{opacity:0.43;}.cls-30{opacity:0.45;}.cls-31{opacity:0.48;}.cls-32{opacity:0.5;}</style></defs><g id="Layer_2" data-name="Layer 2"><g id="Layer_1-2" data-name="Layer 1"><text class="cls-1" transform="translate(156.4 16.59)">O<tspan class="cls-2" x="13.12" y="0">A</tspan><tspan class="cls-3" x="25.57" y="0">SIS </tspan><tspan class="cls-3"><tspan x="0" y="16.48">INTERN</tspan><tspan class="cls-4" x="68.67" y="16.48">A</tspan><tspan x="79.7" y="16.48">TION</tspan><tspan class="cls-5" x="123.92" y="16.48">A</tspan><tspan class="cls-6" x="136.57" y="16.48">L </tspan></tspan><tspan class="cls-7"><tspan x="0" y="32.95">CONFERENCE</tspan></tspan></text><text class="cls-8" transform="translate(157.12 78.83)">2022</text><path class="cls-9" d="M72,66.74a40.57,40.57,0,0,0,0-52.06h0l-.26-.31q-.6-.7-1.23-1.38c-.4-.43-.81-.86-1.23-1.27a40.71,40.71,0,1,0,.06,57.93c.42-.42.83-.84,1.23-1.27s.82-.91,1.22-1.38l.21-.26ZM63.82,44.27c-.12.77-.28,1.53-.47,2.28a23.88,23.88,0,0,1-1.1,3.25,23.05,23.05,0,0,1-2.16,4,23.23,23.23,0,0,1-4.52,5q-.87.72-1.8,1.35c-.31.21-.63.42-1,.61a23.33,23.33,0,0,1-24.22,0c-.33-.19-.64-.4-1-.61a21.65,21.65,0,0,1-1.8-1.35,23.5,23.5,0,0,1-6.68-8.94,23.88,23.88,0,0,1-1.1-3.25c-.19-.75-.35-1.51-.47-2.28a23.38,23.38,0,1,1,46.22,0Z"/><path class="cls-9" d="M72,3.07V11a43,43,0,0,1,0,59.42l-.21.22V81.42H89.39V4.07h0V0H72Z"/><path class="cls-9" d="M103,1.7A40.52,40.52,0,0,0,91.62,7.13l0,29.29a23.36,23.36,0,0,1,40.65-11l14.09-10.16A40.74,40.74,0,0,0,103,1.7Z"/><path class="cls-9" d="M121.3,63.12A23.41,23.41,0,0,1,92.22,47.39a23.15,23.15,0,0,1-.56-2.29l0,29.22a40.79,40.79,0,0,0,23,7.1h.21A40.61,40.61,0,0,0,146,66.64l-15.41-8.85A23.22,23.22,0,0,1,121.3,63.12Z"/><polygon class="cls-9" points="239.91 67.04 238.29 71.39 241.53 71.39 239.93 67.04 239.91 67.04"/><path class="cls-9" d="M271.34,66.09h-1.83a2,2,0,0,0-1.61.73,2.82,2.82,0,0,0-.61,1.9v2.9a2.81,2.81,0,0,0,.61,1.89,2,2,0,0,0,1.61.73h1.83a2,2,0,0,0,1.62-.73,2.81,2.81,0,0,0,.61-1.89v-2.9a2.82,2.82,0,0,0-.61-1.9A2,2,0,0,0,271.34,66.09Z"/><path class="cls-9" d="M157.64,58.91V60.4h53.25v21h88.29V58.91Zm73,17.3h-7.27a1.68,1.68,0,0,1-1.21-.44,1.55,1.55,0,0,1-.46-1.17V64.12h2.38v10h6.56Zm12.58,0-1.05-2.82h-4.52l-1.07,2.82h-2.49l4.73-12.09h1.07a1.49,1.49,0,0,1,1.52,1l4.3,11ZM260.28,72a4.63,4.63,0,0,1-.55,2.25,4,4,0,0,1-1.56,1.53,4.59,4.59,0,0,1-2.28.56h-2a4.73,4.73,0,0,1-2.35-.57,3.92,3.92,0,0,1-1.58-1.62,5,5,0,0,1-.56-2.41V68.58a5.07,5.07,0,0,1,.56-2.41,3.86,3.86,0,0,1,1.59-1.61,4.78,4.78,0,0,1,2.37-.57h1.94a4.84,4.84,0,0,1,2.27.51A3.74,3.74,0,0,1,259.63,66a4.34,4.34,0,0,1,.55,2.19h-2.35a2.1,2.1,0,0,0-.55-1.5,1.94,1.94,0,0,0-1.45-.57h-1.94a1.9,1.9,0,0,0-1.55.72,2.87,2.87,0,0,0-.59,1.87v3a2.84,2.84,0,0,0,.58,1.87,1.86,1.86,0,0,0,1.53.72h2a1.86,1.86,0,0,0,1.46-.64,2.24,2.24,0,0,0,.58-1.59v-.38h-3.35V69.56h5.7ZM276,71.72a4.84,4.84,0,0,1-.58,2.42,4,4,0,0,1-1.62,1.63,4.94,4.94,0,0,1-2.41.58h-1.83a4.9,4.9,0,0,1-2.4-.58,4.12,4.12,0,0,1-1.63-1.63,5,5,0,0,1-.58-2.42V68.61a5,5,0,0,1,.58-2.42,4.12,4.12,0,0,1,1.63-1.63,4.89,4.89,0,0,1,2.4-.57h1.83a4.93,4.93,0,0,1,2.41.57,4,4,0,0,1,1.62,1.63,4.84,4.84,0,0,1,.58,2.42Zm14.71,1.52a2.69,2.69,0,0,1-.51,1.62,3.3,3.3,0,0,1-1.42,1.1,5.4,5.4,0,0,1-2.13.39h-2a3.71,3.71,0,0,1-4-4h2.35a2.06,2.06,0,0,0,.45,1.41,1.63,1.63,0,0,0,1.27.51h1.92a2.16,2.16,0,0,0,1.23-.32,1,1,0,0,0,.48-.85v-.59c0-.57-.42-.92-1.24-1l-3.18-.54a4.52,4.52,0,0,1-2.36-1,2.46,2.46,0,0,1-.8-1.88v-1a2.75,2.75,0,0,1,.49-1.62,3.19,3.19,0,0,1,1.4-1.07,5.25,5.25,0,0,1,2.1-.38h1.95a4.08,4.08,0,0,1,2,.46A3.31,3.31,0,0,1,290,65.76a3.8,3.8,0,0,1,.48,1.94h-2.35a1.66,1.66,0,0,0-.4-1.17,1.34,1.34,0,0,0-1.05-.44h-1.95a2.05,2.05,0,0,0-1.17.31,1,1,0,0,0-.44.83v.47c0,.57.4.93,1.19,1.07l3.16.55a5,5,0,0,1,2.4,1,2.27,2.27,0,0,1,.83,1.81Z"/><path class="cls-10" d="M46.5,34.53c-2.1-3-4.26-6-5.4-9.92-1.13,3.92-3.3,7-5.39,9.92-2.61,3.67-5.08,7.14-5.08,11.81a10.48,10.48,0,0,0,21,0C51.58,41.67,49.11,38.2,46.5,34.53Z"/><path class="cls-11" d="M49.53,43.21c.72-.39,1.17,4.72-1.1,8.51-.66,1.11-3.73,4.08-4.25,3.51-.39-.42,1.17-3.36,1.86-4.63C47.3,48.27,48.1,44,49.53,43.21Z"/><path class="cls-12" d="M49.48,43.54c.7-.36,1.11,4.54-1.07,8.18-.64,1.08-3.61,4-4.1,3.4s1.13-3.23,1.79-4.45C47.32,48.42,48.11,44.27,49.48,43.54Z"/><path class="cls-13" d="M49.43,43.88c.67-.35,1,4.34-1,7.84-.63,1-3.49,3.81-4,3.29s1.1-3.1,1.74-4.27C47.35,48.57,48.12,44.56,49.43,43.88Z"/><path class="cls-14" d="M49.38,44.21c.65-.33,1,4.15-1,7.51-.61,1-3.37,3.67-3.82,3.17s1.07-3,1.68-4.09C47.37,48.73,48.13,44.86,49.38,44.21Z"/><path class="cls-15" d="M49.33,44.55c.62-.32.94,4-1,7.17-.58,1-3.24,3.53-3.68,3.06s1-2.83,1.63-3.91C47.39,48.88,48.14,45.16,49.33,44.55Z"/><path class="cls-16" d="M49.28,44.88c.6-.3.88,3.76-.94,6.83-.56.95-3.12,3.4-3.53,3s1-2.7,1.56-3.73C47.42,49,48.15,45.46,49.28,44.88Z"/><path class="cls-17" d="M49.23,45.22c.58-.29.83,3.56-.91,6.49-.54.92-3,3.26-3.38,2.85s1-2.57,1.5-3.56C47.44,49.18,48.15,45.75,49.23,45.22Z"/><path class="cls-18" d="M49.19,45.55c.54-.26.76,3.37-.89,6.16-.52.88-2.87,3.12-3.24,2.73S46,52,46.51,51.07C47.46,49.33,48.16,46.05,49.19,45.55Z"/><path class="cls-19" d="M49.14,45.89c.52-.25.7,3.17-.86,5.82-.49.85-2.74,3-3.09,2.62s.9-2.3,1.39-3.2C47.49,49.49,48.17,46.35,49.14,45.89Z"/><path class="cls-20" d="M49.09,46.22c.49-.23.64,3-.83,5.49-.47.81-2.62,2.84-2.95,2.51s.87-2.17,1.34-3C47.51,49.64,48.18,46.65,49.09,46.22Z"/><path class="cls-21" d="M49,46.56c.47-.22.58,2.78-.8,5.15-.45.78-2.49,2.7-2.8,2.4s.83-2,1.27-2.84C47.53,49.79,48.19,47,49,46.56Z"/><path class="cls-22" d="M49,46.89c.45-.2.52,2.6-.77,4.82-.43.75-2.37,2.56-2.65,2.28s.79-1.9,1.21-2.66C47.56,49.94,48.2,47.24,49,46.89Z"/><path class="cls-23" d="M48.94,47.23c.42-.18.47,2.4-.73,4.48-.42.71-2.25,2.42-2.52,2.17s.77-1.77,1.16-2.48C47.58,50.09,48.21,47.54,48.94,47.23Z"/><path class="cls-24" d="M48.89,47.56c.4-.16.41,2.21-.7,4.15-.39.68-2.13,2.28-2.37,2.06s.73-1.64,1.1-2.3C47.6,50.25,48.22,47.84,48.89,47.56Z"/><path class="cls-25" d="M48.85,47.9c.37-.15.34,2-.68,3.81-.37.65-2,2.15-2.23,1.94s.7-1.51,1-2.12C47.62,50.4,48.23,48.14,48.85,47.9Z"/><path class="cls-26" d="M48.8,48.23c.34-.13.29,1.82-.65,3.48-.35.61-1.88,2-2.08,1.83s.66-1.38,1-1.94C47.65,50.55,48.24,48.44,48.8,48.23Z"/><path class="cls-27" d="M48.75,48.57c.32-.11.23,1.62-.62,3.14-.33.58-1.75,1.87-1.93,1.72s.62-1.25.92-1.76C47.67,50.7,48.25,48.74,48.75,48.57Z"/><path class="cls-28" d="M48.7,48.9c.3-.09.17,1.44-.59,2.81-.3.54-1.63,1.73-1.79,1.61s.6-1.12.87-1.59C47.69,50.85,48.26,49,48.7,48.9Z"/><path class="cls-29" d="M48.65,49.24c.27-.08.12,1.24-.56,2.47-.28.51-1.5,1.59-1.64,1.49s.56-1,.81-1.4C47.72,51,48.27,49.34,48.65,49.24Z"/><path class="cls-30" d="M48.6,49.57c.25,0,.06,1-.53,2.14a4.39,4.39,0,0,1-1.5,1.38c-.1-.06.53-.85.75-1.22C47.74,51.16,48.28,49.64,48.6,49.57Z"/><path class="cls-31" d="M48.55,49.91c.23,0,0,.85-.5,1.8A4.32,4.32,0,0,1,46.7,53c-.09,0,.49-.72.69-1C47.76,51.31,48.29,50,48.55,49.91Z"/><path class="cls-32" d="M48.51,50.24c.19,0-.06.66-.48,1.47a4.28,4.28,0,0,1-1.2,1.16c-.08,0,.46-.59.63-.87C47.79,51.46,48.3,50.25,48.51,50.24Z"/></g></g></svg>