<svg width="276" height="77" viewBox="0 0 276 77" fill="none" xmlns="http://www.w3.org/2000/svg">
<g clip-path="url(#clip0_132_42)">
<path d="M108.8 75.2C121 75.2 131.1 70.8 137.7 62.7L127.3 53.1C122.6 58.6 116.7 61.4 109.7 61.4C96.6 61.4 87.3 52.2 87.3 39C87.3 25.8 96.6 16.6 109.7 16.6C116.7 16.6 122.6 19.4 127.3 24.8L137.7 15.2C131.1 7.2 121 2.8 108.9 2.8C87.1 2.8 70.9 17.9 70.9 39C70.9 60.1 87.1 75.2 108.8 75.2Z" fill="black"/>
<path d="M137.7 62.7L139.25 63.9633L140.438 62.5057L139.057 61.2304L137.7 62.7ZM127.3 53.1L128.657 51.6304L127.13 50.2209L125.78 51.8007L127.3 53.1ZM127.3 24.8L125.791 26.113L127.143 27.6664L128.657 26.2696L127.3 24.8ZM137.7 15.2L139.057 16.6696L140.447 15.3865L139.243 13.9272L137.7 15.2ZM108.8 77.2C121.495 77.2 132.208 72.6058 139.25 63.9633L136.15 61.4367C129.992 68.9942 120.505 73.2 108.8 73.2V77.2ZM139.057 61.2304L128.657 51.6304L125.943 54.5696L136.343 64.1696L139.057 61.2304ZM125.78 51.8007C121.441 56.8773 116.088 59.4 109.7 59.4V63.4C117.312 63.4 123.759 60.3227 128.82 54.3993L125.78 51.8007ZM109.7 59.4C103.63 59.4 98.5535 57.2764 94.9995 53.7336C91.4464 50.1917 89.3 45.1169 89.3 39H85.3C85.3 46.0831 87.8036 52.2083 92.1755 56.5664C96.5465 60.9236 102.67 63.4 109.7 63.4V59.4ZM89.3 39C89.3 32.8831 91.4464 27.8083 94.9995 24.2664C98.5535 20.7236 103.63 18.6 109.7 18.6V14.6C102.67 14.6 96.5465 17.0764 92.1755 21.4336C87.8036 25.7917 85.3 31.9169 85.3 39H89.3ZM109.7 18.6C116.091 18.6 121.451 21.126 125.791 26.113L128.809 23.4869C123.749 17.674 117.309 14.6 109.7 14.6V18.6ZM128.657 26.2696L139.057 16.6696L136.343 13.7304L125.943 23.3304L128.657 26.2696ZM139.243 13.9272C132.203 5.39469 121.497 0.799999 108.9 0.799999V4.8C120.503 4.8 129.997 9.0053 136.157 16.4728L139.243 13.9272ZM108.9 0.799999C86.1005 0.799999 68.9 16.6932 68.9 39H72.9C72.9 19.1068 88.0995 4.8 108.9 4.8V0.799999ZM68.9 39C68.9 61.3034 86.0969 77.2 108.8 77.2V73.2C88.1031 73.2 72.9 58.8966 72.9 39H68.9Z" fill="white"/>
<path d="M69.3 74H85.5V4H69.3V74Z" fill="black"/>
<path d="M69.3 74H67.3V76H69.3V74ZM85.5 74V76H87.5V74H85.5ZM85.5 4H87.5V2H85.5V4ZM69.3 4V2H67.3V4H69.3ZM69.3 76H85.5V72H69.3V76ZM87.5 74V4H83.5V74H87.5ZM85.5 2H69.3V6H85.5V2ZM67.3 4V74H71.3V4H67.3Z" fill="white"/>
<path d="M40.2 75.2C62.2 75.2 78.5 59.9 78.5 39C78.5 18.1 62.2 2.8 40.2 2.8C18.1 2.8 1.9 18.2 1.9 39C1.9 59.8 18.1 75.2 40.2 75.2ZM40.2 61.4C27.7 61.4 18.3 52.3 18.3 39C18.3 25.7 27.7 16.6 40.2 16.6C52.7 16.6 62.1 25.7 62.1 39C62.1 52.3 52.7 61.4 40.2 61.4Z" fill="black"/>
<path d="M40.2 77.2C63.1928 77.2 80.5 61.1131 80.5 39H76.5C76.5 58.6869 61.2072 73.2 40.2 73.2V77.2ZM80.5 39C80.5 16.8869 63.1928 0.799999 40.2 0.799999V4.8C61.2072 4.8 76.5 19.3131 76.5 39H80.5ZM40.2 0.799999C17.0999 0.799999 -0.0999999 16.9938 -0.0999999 39H3.9C3.9 19.4062 19.1001 4.8 40.2 4.8V0.799999ZM-0.0999999 39C-0.0999999 61.0062 17.0999 77.2 40.2 77.2V73.2C19.1001 73.2 3.9 58.5938 3.9 39H-0.0999999ZM40.2 59.4C28.8166 59.4 20.3 51.2075 20.3 39H16.3C16.3 53.3925 26.5834 63.4 40.2 63.4V59.4ZM20.3 39C20.3 26.7925 28.8166 18.6 40.2 18.6V14.6C26.5834 14.6 16.3 24.6075 16.3 39H20.3ZM40.2 18.6C51.5834 18.6 60.1 26.7925 60.1 39H64.1C64.1 24.6075 53.8166 14.6 40.2 14.6V18.6ZM60.1 39C60.1 51.2075 51.5834 59.4 40.2 59.4V63.4C53.8166 63.4 64.1 53.3925 64.1 39H60.1Z" fill="white"/>
<rect x="148" y="56" width="125" height="17" fill="black"/>
<rect x="148" y="58" width="48" height="15" fill="white"/>
<path d="M148.81 11.415C148.84 10.855 148.945 10.33 149.125 9.84C149.315 9.34 149.59 8.91 149.95 8.55C150.31 8.18 150.76 7.89 151.3 7.68C151.84 7.46 152.48 7.35 153.22 7.35C153.95 7.35 154.585 7.455 155.125 7.665C155.665 7.875 156.115 8.165 156.475 8.535C156.835 8.905 157.11 9.335 157.3 9.825C157.49 10.315 157.6 10.845 157.63 11.415C157.64 11.605 157.645 11.815 157.645 12.045C157.655 12.275 157.66 12.515 157.66 12.765C157.66 13.005 157.655 13.24 157.645 13.47C157.645 13.7 157.64 13.91 157.63 14.1C157.6 14.66 157.49 15.19 157.3 15.69C157.12 16.18 156.85 16.61 156.49 16.98C156.13 17.34 155.675 17.625 155.125 17.835C154.585 18.045 153.95 18.15 153.22 18.15C152.48 18.15 151.84 18.045 151.3 17.835C150.76 17.625 150.31 17.34 149.95 16.98C149.59 16.61 149.315 16.18 149.125 15.69C148.945 15.19 148.84 14.66 148.81 14.1C148.8 13.91 148.79 13.7 148.78 13.47C148.78 13.24 148.78 13.005 148.78 12.765C148.78 12.515 148.78 12.275 148.78 12.045C148.79 11.815 148.8 11.605 148.81 11.415ZM155.605 11.49C155.565 10.77 155.33 10.215 154.9 9.825C154.48 9.425 153.92 9.225 153.22 9.225C152.52 9.225 151.955 9.425 151.525 9.825C151.105 10.215 150.875 10.77 150.835 11.49C150.815 11.87 150.805 12.295 150.805 12.765C150.805 13.225 150.815 13.645 150.835 14.025C150.875 14.745 151.105 15.3 151.525 15.69C151.955 16.08 152.52 16.275 153.22 16.275C153.92 16.275 154.48 16.08 154.9 15.69C155.33 15.3 155.565 14.745 155.605 14.025C155.625 13.645 155.635 13.225 155.635 12.765C155.635 12.295 155.625 11.87 155.605 11.49ZM165.094 7.5C165.254 7.5 165.374 7.545 165.454 7.635C165.534 7.715 165.604 7.84 165.664 8.01L169.339 17.49C169.349 17.52 169.354 17.555 169.354 17.595C169.354 17.705 169.314 17.8 169.234 17.88C169.154 17.96 169.059 18 168.949 18H167.869C167.669 18 167.529 17.96 167.449 17.88C167.369 17.79 167.314 17.705 167.284 17.625L166.639 15.96H161.899L161.254 17.625C161.224 17.705 161.169 17.79 161.089 17.88C161.009 17.96 160.869 18 160.669 18H159.589C159.479 18 159.384 17.96 159.304 17.88C159.224 17.8 159.184 17.705 159.184 17.595C159.184 17.555 159.189 17.52 159.199 17.49L162.874 8.01C162.934 7.84 163.004 7.715 163.084 7.635C163.164 7.545 163.284 7.5 163.444 7.5H165.094ZM165.919 14.085L164.269 9.81L162.619 14.085H165.919ZM174.939 7.35C175.609 7.35 176.199 7.44 176.709 7.62C177.219 7.8 177.644 8.025 177.984 8.295C178.324 8.565 178.579 8.865 178.749 9.195C178.929 9.515 179.029 9.82 179.049 10.11C179.059 10.23 179.019 10.33 178.929 10.41C178.849 10.48 178.754 10.515 178.644 10.515H177.594C177.424 10.515 177.294 10.485 177.204 10.425C177.124 10.355 177.049 10.265 176.979 10.155C176.829 9.905 176.599 9.69 176.289 9.51C175.989 9.32 175.539 9.225 174.939 9.225C174.679 9.225 174.429 9.255 174.189 9.315C173.959 9.365 173.754 9.445 173.574 9.555C173.404 9.655 173.269 9.78 173.169 9.93C173.069 10.08 173.019 10.25 173.019 10.44C173.019 10.67 173.064 10.86 173.154 11.01C173.254 11.15 173.414 11.275 173.634 11.385C173.864 11.485 174.164 11.58 174.534 11.67C174.904 11.76 175.364 11.865 175.914 11.985C176.514 12.115 177.029 12.27 177.459 12.45C177.899 12.62 178.254 12.83 178.524 13.08C178.804 13.32 179.009 13.6 179.139 13.92C179.279 14.24 179.349 14.605 179.349 15.015C179.349 15.465 179.249 15.885 179.049 16.275C178.849 16.655 178.564 16.985 178.194 17.265C177.824 17.535 177.369 17.75 176.829 17.91C176.289 18.07 175.684 18.15 175.014 18.15C174.454 18.15 173.919 18.085 173.409 17.955C172.899 17.815 172.444 17.62 172.044 17.37C171.654 17.11 171.339 16.8 171.099 16.44C170.859 16.08 170.724 15.68 170.694 15.24C170.684 15.12 170.719 15.025 170.799 14.955C170.889 14.875 170.989 14.835 171.099 14.835H172.149C172.319 14.835 172.449 14.865 172.539 14.925C172.629 14.985 172.704 15.075 172.764 15.195C172.834 15.325 172.919 15.455 173.019 15.585C173.119 15.715 173.254 15.83 173.424 15.93C173.594 16.03 173.804 16.115 174.054 16.185C174.314 16.245 174.634 16.275 175.014 16.275C175.314 16.275 175.604 16.255 175.884 16.215C176.164 16.165 176.409 16.09 176.619 15.99C176.829 15.88 176.999 15.75 177.129 15.6C177.259 15.44 177.324 15.245 177.324 15.015C177.324 14.795 177.254 14.615 177.114 14.475C176.974 14.335 176.759 14.215 176.469 14.115C176.189 14.015 175.839 13.92 175.419 13.83C174.999 13.74 174.514 13.625 173.964 13.485C173.464 13.365 173.024 13.225 172.644 13.065C172.274 12.895 171.964 12.69 171.714 12.45C171.474 12.21 171.294 11.93 171.174 11.61C171.054 11.28 170.994 10.89 170.994 10.44C170.994 9.99 171.094 9.575 171.294 9.195C171.494 8.815 171.769 8.49 172.119 8.22C172.469 7.95 172.884 7.74 173.364 7.59C173.854 7.43 174.379 7.35 174.939 7.35ZM182.221 18C182.111 18 182.016 17.96 181.936 17.88C181.856 17.8 181.816 17.705 181.816 17.595V7.905C181.816 7.795 181.856 7.7 181.936 7.62C182.016 7.54 182.111 7.5 182.221 7.5H183.436C183.546 7.5 183.641 7.54 183.721 7.62C183.801 7.7 183.841 7.795 183.841 7.905V17.595C183.841 17.705 183.801 17.8 183.721 17.88C183.641 17.96 183.546 18 183.436 18H182.221ZM190.531 7.35C191.201 7.35 191.791 7.44 192.301 7.62C192.811 7.8 193.236 8.025 193.576 8.295C193.916 8.565 194.171 8.865 194.341 9.195C194.521 9.515 194.621 9.82 194.641 10.11C194.651 10.23 194.611 10.33 194.521 10.41C194.441 10.48 194.346 10.515 194.236 10.515H193.186C193.016 10.515 192.886 10.485 192.796 10.425C192.716 10.355 192.641 10.265 192.571 10.155C192.421 9.905 192.191 9.69 191.881 9.51C191.581 9.32 191.131 9.225 190.531 9.225C190.271 9.225 190.021 9.255 189.781 9.315C189.551 9.365 189.346 9.445 189.166 9.555C188.996 9.655 188.861 9.78 188.761 9.93C188.661 10.08 188.611 10.25 188.611 10.44C188.611 10.67 188.656 10.86 188.746 11.01C188.846 11.15 189.006 11.275 189.226 11.385C189.456 11.485 189.756 11.58 190.126 11.67C190.496 11.76 190.956 11.865 191.506 11.985C192.106 12.115 192.621 12.27 193.051 12.45C193.491 12.62 193.846 12.83 194.116 13.08C194.396 13.32 194.601 13.6 194.731 13.92C194.871 14.24 194.941 14.605 194.941 15.015C194.941 15.465 194.841 15.885 194.641 16.275C194.441 16.655 194.156 16.985 193.786 17.265C193.416 17.535 192.961 17.75 192.421 17.91C191.881 18.07 191.276 18.15 190.606 18.15C190.046 18.15 189.511 18.085 189.001 17.955C188.491 17.815 188.036 17.62 187.636 17.37C187.246 17.11 186.931 16.8 186.691 16.44C186.451 16.08 186.316 15.68 186.286 15.24C186.276 15.12 186.311 15.025 186.391 14.955C186.481 14.875 186.581 14.835 186.691 14.835H187.741C187.911 14.835 188.041 14.865 188.131 14.925C188.221 14.985 188.296 15.075 188.356 15.195C188.426 15.325 188.511 15.455 188.611 15.585C188.711 15.715 188.846 15.83 189.016 15.93C189.186 16.03 189.396 16.115 189.646 16.185C189.906 16.245 190.226 16.275 190.606 16.275C190.906 16.275 191.196 16.255 191.476 16.215C191.756 16.165 192.001 16.09 192.211 15.99C192.421 15.88 192.591 15.75 192.721 15.6C192.851 15.44 192.916 15.245 192.916 15.015C192.916 14.795 192.846 14.615 192.706 14.475C192.566 14.335 192.351 14.215 192.061 14.115C191.781 14.015 191.431 13.92 191.011 13.83C190.591 13.74 190.106 13.625 189.556 13.485C189.056 13.365 188.616 13.225 188.236 13.065C187.866 12.895 187.556 12.69 187.306 12.45C187.066 12.21 186.886 11.93 186.766 11.61C186.646 11.28 186.586 10.89 186.586 10.44C186.586 9.99 186.686 9.575 186.886 9.195C187.086 8.815 187.361 8.49 187.711 8.22C188.061 7.95 188.476 7.74 188.956 7.59C189.446 7.43 189.971 7.35 190.531 7.35Z" fill="black"/>
<path d="M149.575 34C149.465 34 149.37 33.96 149.29 33.88C149.21 33.8 149.17 33.705 149.17 33.595V23.905C149.17 23.795 149.21 23.7 149.29 23.62C149.37 23.54 149.465 23.5 149.575 23.5H150.79C150.9 23.5 150.995 23.54 151.075 23.62C151.155 23.7 151.195 23.795 151.195 23.905V33.595C151.195 33.705 151.155 33.8 151.075 33.88C150.995 33.96 150.9 34 150.79 34H149.575ZM161.095 34C160.925 34 160.795 33.955 160.705 33.865C160.615 33.775 160.55 33.705 160.51 33.655L156.31 27.415V33.595C156.31 33.705 156.27 33.8 156.19 33.88C156.11 33.96 156.015 34 155.905 34H154.69C154.58 34 154.485 33.96 154.405 33.88C154.325 33.8 154.285 33.705 154.285 33.595V23.905C154.285 23.795 154.325 23.7 154.405 23.62C154.485 23.54 154.58 23.5 154.69 23.5H155.74C155.91 23.5 156.04 23.545 156.13 23.635C156.22 23.725 156.285 23.795 156.325 23.845L160.525 30.085V23.905C160.525 23.795 160.565 23.7 160.645 23.62C160.725 23.54 160.82 23.5 160.93 23.5H162.145C162.255 23.5 162.35 23.54 162.43 23.62C162.51 23.7 162.55 23.795 162.55 23.905V33.595C162.55 33.705 162.51 33.8 162.43 33.88C162.35 33.96 162.255 34 162.145 34H161.095ZM172.631 23.5C172.741 23.5 172.836 23.54 172.916 23.62C172.996 23.7 173.036 23.795 173.036 23.905V24.97C173.036 25.08 172.996 25.175 172.916 25.255C172.836 25.335 172.741 25.375 172.631 25.375H169.931V33.595C169.931 33.705 169.891 33.8 169.811 33.88C169.731 33.96 169.636 34 169.526 34H168.311C168.201 34 168.106 33.96 168.026 33.88C167.946 33.8 167.906 33.705 167.906 33.595V25.375H165.206C165.096 25.375 165.001 25.335 164.921 25.255C164.841 25.175 164.801 25.08 164.801 24.97V23.905C164.801 23.795 164.841 23.7 164.921 23.62C165.001 23.54 165.096 23.5 165.206 23.5H172.631ZM182.272 32.125C182.382 32.125 182.477 32.165 182.557 32.245C182.637 32.325 182.677 32.42 182.677 32.53V33.595C182.677 33.705 182.637 33.8 182.557 33.88C182.477 33.96 182.382 34 182.272 34H175.687C175.577 34 175.482 33.96 175.402 33.88C175.322 33.8 175.282 33.705 175.282 33.595V23.905C175.282 23.795 175.322 23.7 175.402 23.62C175.482 23.54 175.577 23.5 175.687 23.5H182.152C182.262 23.5 182.357 23.54 182.437 23.62C182.517 23.7 182.557 23.795 182.557 23.905V24.97C182.557 25.08 182.517 25.175 182.437 25.255C182.357 25.335 182.262 25.375 182.152 25.375H177.307V27.76H181.822C181.932 27.76 182.027 27.8 182.107 27.88C182.187 27.96 182.227 28.055 182.227 28.165V29.23C182.227 29.34 182.187 29.435 182.107 29.515C182.027 29.595 181.932 29.635 181.822 29.635H177.307V32.125H182.272ZM189.565 23.5C190.815 23.5 191.765 23.79 192.415 24.37C193.065 24.95 193.39 25.755 193.39 26.785C193.39 27.515 193.22 28.14 192.88 28.66C192.55 29.17 192.06 29.55 191.41 29.8L193.48 33.505C193.51 33.565 193.525 33.62 193.525 33.67C193.525 33.76 193.49 33.84 193.42 33.91C193.36 33.97 193.285 34 193.195 34H191.92C191.72 34 191.57 33.955 191.47 33.865C191.38 33.765 191.315 33.675 191.275 33.595L189.31 30.1H187.315V33.595C187.315 33.705 187.275 33.8 187.195 33.88C187.115 33.96 187.02 34 186.91 34H185.695C185.585 34 185.49 33.96 185.41 33.88C185.33 33.8 185.29 33.705 185.29 33.595V23.905C185.29 23.795 185.33 23.7 185.41 23.62C185.49 23.54 185.585 23.5 185.695 23.5H189.565ZM187.315 28.225H189.49C190.06 28.225 190.515 28.125 190.855 27.925C191.195 27.725 191.365 27.345 191.365 26.785C191.365 26.225 191.195 25.85 190.855 25.66C190.515 25.47 190.06 25.375 189.49 25.375H187.315V28.225ZM202.899 34C202.729 34 202.599 33.955 202.509 33.865C202.419 33.775 202.354 33.705 202.314 33.655L198.114 27.415V33.595C198.114 33.705 198.074 33.8 197.994 33.88C197.914 33.96 197.819 34 197.709 34H196.494C196.384 34 196.289 33.96 196.209 33.88C196.129 33.8 196.089 33.705 196.089 33.595V23.905C196.089 23.795 196.129 23.7 196.209 23.62C196.289 23.54 196.384 23.5 196.494 23.5H197.544C197.714 23.5 197.844 23.545 197.934 23.635C198.024 23.725 198.089 23.795 198.129 23.845L202.329 30.085V23.905C202.329 23.795 202.369 23.7 202.449 23.62C202.529 23.54 202.624 23.5 202.734 23.5H203.949C204.059 23.5 204.154 23.54 204.234 23.62C204.314 23.7 204.354 23.795 204.354 23.905V33.595C204.354 33.705 204.314 33.8 204.234 33.88C204.154 33.96 204.059 34 203.949 34H202.899ZM212.379 23.5C212.539 23.5 212.659 23.545 212.739 23.635C212.819 23.715 212.889 23.84 212.949 24.01L216.624 33.49C216.634 33.52 216.639 33.555 216.639 33.595C216.639 33.705 216.599 33.8 216.519 33.88C216.439 33.96 216.344 34 216.234 34H215.154C214.954 34 214.814 33.96 214.734 33.88C214.654 33.79 214.599 33.705 214.569 33.625L213.924 31.96H209.184L208.539 33.625C208.509 33.705 208.454 33.79 208.374 33.88C208.294 33.96 208.154 34 207.954 34H206.874C206.764 34 206.669 33.96 206.589 33.88C206.509 33.8 206.469 33.705 206.469 33.595C206.469 33.555 206.474 33.52 206.484 33.49L210.159 24.01C210.219 23.84 210.289 23.715 210.369 23.635C210.449 23.545 210.569 23.5 210.729 23.5H212.379ZM213.204 30.085L211.554 25.81L209.904 30.085H213.204ZM224.677 23.5C224.787 23.5 224.882 23.54 224.962 23.62C225.042 23.7 225.082 23.795 225.082 23.905V24.97C225.082 25.08 225.042 25.175 224.962 25.255C224.882 25.335 224.787 25.375 224.677 25.375H221.977V33.595C221.977 33.705 221.937 33.8 221.857 33.88C221.777 33.96 221.682 34 221.572 34H220.357C220.247 34 220.152 33.96 220.072 33.88C219.992 33.8 219.952 33.705 219.952 33.595V25.375H217.252C217.142 25.375 217.047 25.335 216.967 25.255C216.887 25.175 216.847 25.08 216.847 24.97V23.905C216.847 23.795 216.887 23.7 216.967 23.62C217.047 23.54 217.142 23.5 217.252 23.5H224.677ZM227.733 34C227.623 34 227.528 33.96 227.448 33.88C227.368 33.8 227.328 33.705 227.328 33.595V23.905C227.328 23.795 227.368 23.7 227.448 23.62C227.528 23.54 227.623 23.5 227.733 23.5H228.948C229.058 23.5 229.153 23.54 229.233 23.62C229.313 23.7 229.353 23.795 229.353 23.905V33.595C229.353 33.705 229.313 33.8 229.233 33.88C229.153 33.96 229.058 34 228.948 34H227.733ZM232.083 27.415C232.113 26.855 232.218 26.33 232.398 25.84C232.588 25.34 232.863 24.91 233.223 24.55C233.583 24.18 234.033 23.89 234.573 23.68C235.113 23.46 235.753 23.35 236.493 23.35C237.223 23.35 237.858 23.455 238.398 23.665C238.938 23.875 239.388 24.165 239.748 24.535C240.108 24.905 240.383 25.335 240.573 25.825C240.763 26.315 240.873 26.845 240.903 27.415C240.913 27.605 240.918 27.815 240.918 28.045C240.928 28.275 240.933 28.515 240.933 28.765C240.933 29.005 240.928 29.24 240.918 29.47C240.918 29.7 240.913 29.91 240.903 30.1C240.873 30.66 240.763 31.19 240.573 31.69C240.393 32.18 240.123 32.61 239.763 32.98C239.403 33.34 238.948 33.625 238.398 33.835C237.858 34.045 237.223 34.15 236.493 34.15C235.753 34.15 235.113 34.045 234.573 33.835C234.033 33.625 233.583 33.34 233.223 32.98C232.863 32.61 232.588 32.18 232.398 31.69C232.218 31.19 232.113 30.66 232.083 30.1C232.073 29.91 232.063 29.7 232.053 29.47C232.053 29.24 232.053 29.005 232.053 28.765C232.053 28.515 232.053 28.275 232.053 28.045C232.063 27.815 232.073 27.605 232.083 27.415ZM238.878 27.49C238.838 26.77 238.603 26.215 238.173 25.825C237.753 25.425 237.193 25.225 236.493 25.225C235.793 25.225 235.228 25.425 234.798 25.825C234.378 26.215 234.148 26.77 234.108 27.49C234.088 27.87 234.078 28.295 234.078 28.765C234.078 29.225 234.088 29.645 234.108 30.025C234.148 30.745 234.378 31.3 234.798 31.69C235.228 32.08 235.793 32.275 236.493 32.275C237.193 32.275 237.753 32.08 238.173 31.69C238.603 31.3 238.838 30.745 238.878 30.025C238.898 29.645 238.908 29.225 238.908 28.765C238.908 28.295 238.898 27.87 238.878 27.49ZM250.448 34C250.278 34 250.148 33.955 250.058 33.865C249.968 33.775 249.903 33.705 249.863 33.655L245.663 27.415V33.595C245.663 33.705 245.623 33.8 245.543 33.88C245.463 33.96 245.368 34 245.258 34H244.043C243.933 34 243.838 33.96 243.758 33.88C243.678 33.8 243.638 33.705 243.638 33.595V23.905C243.638 23.795 243.678 23.7 243.758 23.62C243.838 23.54 243.933 23.5 244.043 23.5H245.093C245.263 23.5 245.393 23.545 245.483 23.635C245.573 23.725 245.638 23.795 245.678 23.845L249.878 30.085V23.905C249.878 23.795 249.918 23.7 249.998 23.62C250.078 23.54 250.173 23.5 250.283 23.5H251.498C251.608 23.5 251.703 23.54 251.783 23.62C251.863 23.7 251.903 23.795 251.903 23.905V33.595C251.903 33.705 251.863 33.8 251.783 33.88C251.703 33.96 251.608 34 251.498 34H250.448ZM259.928 23.5C260.088 23.5 260.208 23.545 260.288 23.635C260.368 23.715 260.438 23.84 260.498 24.01L264.173 33.49C264.183 33.52 264.188 33.555 264.188 33.595C264.188 33.705 264.148 33.8 264.068 33.88C263.988 33.96 263.893 34 263.783 34H262.703C262.503 34 262.363 33.96 262.283 33.88C262.203 33.79 262.148 33.705 262.118 33.625L261.473 31.96H256.733L256.088 33.625C256.058 33.705 256.003 33.79 255.923 33.88C255.843 33.96 255.703 34 255.503 34H254.423C254.313 34 254.218 33.96 254.138 33.88C254.058 33.8 254.018 33.705 254.018 33.595C254.018 33.555 254.023 33.52 254.033 33.49L257.708 24.01C257.768 23.84 257.838 23.715 257.918 23.635C257.998 23.545 258.118 23.5 258.278 23.5H259.928ZM260.753 30.085L259.103 25.81L257.453 30.085H260.753ZM273.28 32.125C273.39 32.125 273.485 32.165 273.565 32.245C273.645 32.325 273.685 32.42 273.685 32.53V33.595C273.685 33.705 273.645 33.8 273.565 33.88C273.485 33.96 273.39 34 273.28 34H266.71C266.6 34 266.505 33.96 266.425 33.88C266.345 33.8 266.305 33.705 266.305 33.595V23.905C266.305 23.795 266.345 23.7 266.425 23.62C266.505 23.54 266.6 23.5 266.71 23.5H267.925C268.035 23.5 268.13 23.54 268.21 23.62C268.29 23.7 268.33 23.795 268.33 23.905V32.125H273.28Z" fill="black"/>
<path d="M155.62 46.67C155.64 46.54 155.69 46.445 155.77 46.385C155.86 46.315 155.955 46.28 156.055 46.28H157.27C157.38 46.28 157.475 46.32 157.555 46.4C157.645 46.47 157.685 46.565 157.675 46.685C157.645 47.095 157.54 47.505 157.36 47.915C157.19 48.325 156.925 48.695 156.565 49.025C156.205 49.355 155.75 49.625 155.2 49.835C154.65 50.045 153.985 50.15 153.205 50.15C152.515 50.15 151.905 50.05 151.375 49.85C150.845 49.64 150.395 49.355 150.025 48.995C149.655 48.625 149.365 48.185 149.155 47.675C148.955 47.165 148.835 46.61 148.795 46.01C148.775 45.63 148.765 45.21 148.765 44.75C148.765 44.29 148.775 43.87 148.795 43.49C148.835 42.89 148.955 42.335 149.155 41.825C149.365 41.315 149.655 40.88 150.025 40.52C150.395 40.15 150.845 39.865 151.375 39.665C151.905 39.455 152.515 39.35 153.205 39.35C153.985 39.35 154.65 39.455 155.2 39.665C155.75 39.875 156.205 40.145 156.565 40.475C156.925 40.805 157.19 41.18 157.36 41.6C157.54 42.01 157.645 42.415 157.675 42.815C157.685 42.935 157.645 43.035 157.555 43.115C157.475 43.185 157.38 43.22 157.27 43.22H156.055C155.955 43.22 155.86 43.19 155.77 43.13C155.68 43.06 155.625 42.96 155.605 42.83C155.575 42.63 155.505 42.435 155.395 42.245C155.285 42.055 155.135 41.885 154.945 41.735C154.755 41.585 154.515 41.465 154.225 41.375C153.935 41.275 153.595 41.225 153.205 41.225C152.815 41.225 152.475 41.285 152.185 41.405C151.895 41.525 151.65 41.685 151.45 41.885C151.26 42.085 151.11 42.325 151 42.605C150.9 42.885 150.84 43.18 150.82 43.49C150.8 43.87 150.79 44.29 150.79 44.75C150.79 45.21 150.8 45.63 150.82 46.01C150.84 46.33 150.9 46.63 151 46.91C151.11 47.18 151.26 47.415 151.45 47.615C151.65 47.815 151.895 47.975 152.185 48.095C152.475 48.215 152.815 48.275 153.205 48.275C153.595 48.275 153.935 48.23 154.225 48.14C154.515 48.04 154.755 47.915 154.945 47.765C155.145 47.615 155.3 47.445 155.41 47.255C155.52 47.065 155.59 46.87 155.62 46.67ZM161.914 43.415C161.944 42.855 162.049 42.33 162.229 41.84C162.419 41.34 162.694 40.91 163.054 40.55C163.414 40.18 163.864 39.89 164.404 39.68C164.944 39.46 165.584 39.35 166.324 39.35C167.054 39.35 167.689 39.455 168.229 39.665C168.769 39.875 169.219 40.165 169.579 40.535C169.939 40.905 170.214 41.335 170.404 41.825C170.594 42.315 170.704 42.845 170.734 43.415C170.744 43.605 170.749 43.815 170.749 44.045C170.759 44.275 170.764 44.515 170.764 44.765C170.764 45.005 170.759 45.24 170.749 45.47C170.749 45.7 170.744 45.91 170.734 46.1C170.704 46.66 170.594 47.19 170.404 47.69C170.224 48.18 169.954 48.61 169.594 48.98C169.234 49.34 168.779 49.625 168.229 49.835C167.689 50.045 167.054 50.15 166.324 50.15C165.584 50.15 164.944 50.045 164.404 49.835C163.864 49.625 163.414 49.34 163.054 48.98C162.694 48.61 162.419 48.18 162.229 47.69C162.049 47.19 161.944 46.66 161.914 46.1C161.904 45.91 161.894 45.7 161.884 45.47C161.884 45.24 161.884 45.005 161.884 44.765C161.884 44.515 161.884 44.275 161.884 44.045C161.894 43.815 161.904 43.605 161.914 43.415ZM168.709 43.49C168.669 42.77 168.434 42.215 168.004 41.825C167.584 41.425 167.024 41.225 166.324 41.225C165.624 41.225 165.059 41.425 164.629 41.825C164.209 42.215 163.979 42.77 163.939 43.49C163.919 43.87 163.909 44.295 163.909 44.765C163.909 45.225 163.919 45.645 163.939 46.025C163.979 46.745 164.209 47.3 164.629 47.69C165.059 48.08 165.624 48.275 166.324 48.275C167.024 48.275 167.584 48.08 168.004 47.69C168.434 47.3 168.669 46.745 168.709 46.025C168.729 45.645 168.739 45.225 168.739 44.765C168.739 44.295 168.729 43.87 168.709 43.49ZM182.378 50C182.208 50 182.078 49.955 181.988 49.865C181.898 49.775 181.833 49.705 181.793 49.655L177.593 43.415V49.595C177.593 49.705 177.553 49.8 177.473 49.88C177.393 49.96 177.298 50 177.188 50H175.973C175.863 50 175.768 49.96 175.688 49.88C175.608 49.8 175.568 49.705 175.568 49.595V39.905C175.568 39.795 175.608 39.7 175.688 39.62C175.768 39.54 175.863 39.5 175.973 39.5H177.023C177.193 39.5 177.323 39.545 177.413 39.635C177.503 39.725 177.568 39.795 177.608 39.845L181.808 46.085V39.905C181.808 39.795 181.848 39.7 181.928 39.62C182.008 39.54 182.103 39.5 182.213 39.5H183.428C183.538 39.5 183.633 39.54 183.713 39.62C183.793 39.7 183.833 39.795 183.833 39.905V49.595C183.833 49.705 183.793 49.8 183.713 49.88C183.633 49.96 183.538 50 183.428 50H182.378ZM195.834 39.5C195.944 39.5 196.039 39.54 196.119 39.62C196.199 39.7 196.239 39.795 196.239 39.905V40.97C196.239 41.08 196.199 41.175 196.119 41.255C196.039 41.335 195.944 41.375 195.834 41.375H191.049V44.285H195.534C195.644 44.285 195.739 44.325 195.819 44.405C195.899 44.485 195.939 44.58 195.939 44.69V45.755C195.939 45.865 195.899 45.96 195.819 46.04C195.739 46.12 195.644 46.16 195.534 46.16H191.049V49.595C191.049 49.705 191.009 49.8 190.929 49.88C190.849 49.96 190.754 50 190.644 50H189.429C189.319 50 189.224 49.96 189.144 49.88C189.064 49.8 189.024 49.705 189.024 49.595V39.905C189.024 39.795 189.064 39.7 189.144 39.62C189.224 39.54 189.319 39.5 189.429 39.5H195.834ZM207.814 48.125C207.924 48.125 208.019 48.165 208.099 48.245C208.179 48.325 208.219 48.42 208.219 48.53V49.595C208.219 49.705 208.179 49.8 208.099 49.88C208.019 49.96 207.924 50 207.814 50H201.229C201.119 50 201.024 49.96 200.944 49.88C200.864 49.8 200.824 49.705 200.824 49.595V39.905C200.824 39.795 200.864 39.7 200.944 39.62C201.024 39.54 201.119 39.5 201.229 39.5H207.694C207.804 39.5 207.899 39.54 207.979 39.62C208.059 39.7 208.099 39.795 208.099 39.905V40.97C208.099 41.08 208.059 41.175 207.979 41.255C207.899 41.335 207.804 41.375 207.694 41.375H202.849V43.76H207.364C207.474 43.76 207.569 43.8 207.649 43.88C207.729 43.96 207.769 44.055 207.769 44.165V45.23C207.769 45.34 207.729 45.435 207.649 45.515C207.569 45.595 207.474 45.635 207.364 45.635H202.849V48.125H207.814ZM217.207 39.5C218.457 39.5 219.407 39.79 220.057 40.37C220.707 40.95 221.032 41.755 221.032 42.785C221.032 43.515 220.862 44.14 220.522 44.66C220.192 45.17 219.702 45.55 219.052 45.8L221.122 49.505C221.152 49.565 221.167 49.62 221.167 49.67C221.167 49.76 221.132 49.84 221.062 49.91C221.002 49.97 220.927 50 220.837 50H219.562C219.362 50 219.212 49.955 219.112 49.865C219.022 49.765 218.957 49.675 218.917 49.595L216.952 46.1H214.957V49.595C214.957 49.705 214.917 49.8 214.837 49.88C214.757 49.96 214.662 50 214.552 50H213.337C213.227 50 213.132 49.96 213.052 49.88C212.972 49.8 212.932 49.705 212.932 49.595V39.905C212.932 39.795 212.972 39.7 213.052 39.62C213.132 39.54 213.227 39.5 213.337 39.5H217.207ZM214.957 44.225H217.132C217.702 44.225 218.157 44.125 218.497 43.925C218.837 43.725 219.007 43.345 219.007 42.785C219.007 42.225 218.837 41.85 218.497 41.66C218.157 41.47 217.702 41.375 217.132 41.375H214.957V44.225ZM232.821 48.125C232.931 48.125 233.026 48.165 233.106 48.245C233.186 48.325 233.226 48.42 233.226 48.53V49.595C233.226 49.705 233.186 49.8 233.106 49.88C233.026 49.96 232.931 50 232.821 50H226.236C226.126 50 226.031 49.96 225.951 49.88C225.871 49.8 225.831 49.705 225.831 49.595V39.905C225.831 39.795 225.871 39.7 225.951 39.62C226.031 39.54 226.126 39.5 226.236 39.5H232.701C232.811 39.5 232.906 39.54 232.986 39.62C233.066 39.7 233.106 39.795 233.106 39.905V40.97C233.106 41.08 233.066 41.175 232.986 41.255C232.906 41.335 232.811 41.375 232.701 41.375H227.856V43.76H232.371C232.481 43.76 232.576 43.8 232.656 43.88C232.736 43.96 232.776 44.055 232.776 44.165V45.23C232.776 45.34 232.736 45.435 232.656 45.515C232.576 45.595 232.481 45.635 232.371 45.635H227.856V48.125H232.821ZM244.748 50C244.578 50 244.448 49.955 244.358 49.865C244.268 49.775 244.203 49.705 244.163 49.655L239.963 43.415V49.595C239.963 49.705 239.923 49.8 239.843 49.88C239.763 49.96 239.668 50 239.558 50H238.343C238.233 50 238.138 49.96 238.058 49.88C237.978 49.8 237.938 49.705 237.938 49.595V39.905C237.938 39.795 237.978 39.7 238.058 39.62C238.138 39.54 238.233 39.5 238.343 39.5H239.393C239.563 39.5 239.693 39.545 239.783 39.635C239.873 39.725 239.938 39.795 239.978 39.845L244.178 46.085V39.905C244.178 39.795 244.218 39.7 244.298 39.62C244.378 39.54 244.473 39.5 244.583 39.5H245.798C245.908 39.5 246.003 39.54 246.083 39.62C246.163 39.7 246.203 39.795 246.203 39.905V49.595C246.203 49.705 246.163 49.8 246.083 49.88C246.003 49.96 245.908 50 245.798 50H244.748ZM257.844 46.67C257.864 46.54 257.914 46.445 257.994 46.385C258.084 46.315 258.179 46.28 258.279 46.28H259.494C259.604 46.28 259.699 46.32 259.779 46.4C259.869 46.47 259.909 46.565 259.899 46.685C259.869 47.095 259.764 47.505 259.584 47.915C259.414 48.325 259.149 48.695 258.789 49.025C258.429 49.355 257.974 49.625 257.424 49.835C256.874 50.045 256.209 50.15 255.429 50.15C254.739 50.15 254.129 50.05 253.599 49.85C253.069 49.64 252.619 49.355 252.249 48.995C251.879 48.625 251.589 48.185 251.379 47.675C251.179 47.165 251.059 46.61 251.019 46.01C250.999 45.63 250.989 45.21 250.989 44.75C250.989 44.29 250.999 43.87 251.019 43.49C251.059 42.89 251.179 42.335 251.379 41.825C251.589 41.315 251.879 40.88 252.249 40.52C252.619 40.15 253.069 39.865 253.599 39.665C254.129 39.455 254.739 39.35 255.429 39.35C256.209 39.35 256.874 39.455 257.424 39.665C257.974 39.875 258.429 40.145 258.789 40.475C259.149 40.805 259.414 41.18 259.584 41.6C259.764 42.01 259.869 42.415 259.899 42.815C259.909 42.935 259.869 43.035 259.779 43.115C259.699 43.185 259.604 43.22 259.494 43.22H258.279C258.179 43.22 258.084 43.19 257.994 43.13C257.904 43.06 257.849 42.96 257.829 42.83C257.799 42.63 257.729 42.435 257.619 42.245C257.509 42.055 257.359 41.885 257.169 41.735C256.979 41.585 256.739 41.465 256.449 41.375C256.159 41.275 255.819 41.225 255.429 41.225C255.039 41.225 254.699 41.285 254.409 41.405C254.119 41.525 253.874 41.685 253.674 41.885C253.484 42.085 253.334 42.325 253.224 42.605C253.124 42.885 253.064 43.18 253.044 43.49C253.024 43.87 253.014 44.29 253.014 44.75C253.014 45.21 253.024 45.63 253.044 46.01C253.064 46.33 253.124 46.63 253.224 46.91C253.334 47.18 253.484 47.415 253.674 47.615C253.874 47.815 254.119 47.975 254.409 48.095C254.699 48.215 255.039 48.275 255.429 48.275C255.819 48.275 256.159 48.23 256.449 48.14C256.739 48.04 256.979 47.915 257.169 47.765C257.369 47.615 257.524 47.445 257.634 47.255C257.744 47.065 257.814 46.87 257.844 46.67ZM271.488 48.125C271.598 48.125 271.693 48.165 271.773 48.245C271.853 48.325 271.893 48.42 271.893 48.53V49.595C271.893 49.705 271.853 49.8 271.773 49.88C271.693 49.96 271.598 50 271.488 50H264.903C264.793 50 264.698 49.96 264.618 49.88C264.538 49.8 264.498 49.705 264.498 49.595V39.905C264.498 39.795 264.538 39.7 264.618 39.62C264.698 39.54 264.793 39.5 264.903 39.5H271.368C271.478 39.5 271.573 39.54 271.653 39.62C271.733 39.7 271.773 39.795 271.773 39.905V40.97C271.773 41.08 271.733 41.175 271.653 41.255C271.573 41.335 271.478 41.375 271.368 41.375H266.523V43.76H271.038C271.148 43.76 271.243 43.8 271.323 43.88C271.403 43.96 271.443 44.055 271.443 44.165V45.23C271.443 45.34 271.403 45.435 271.323 45.515C271.243 45.595 271.148 45.635 271.038 45.635H266.523V48.125H271.488Z" fill="black"/>
<path d="M153.535 67.12C153.835 66.88 154.025 66.635 154.105 66.385C154.195 66.135 154.24 65.905 154.24 65.695C154.24 65.285 154.115 64.94 153.865 64.66C153.615 64.37 153.2 64.225 152.62 64.225C152.07 64.225 151.665 64.36 151.405 64.63C151.155 64.9 150.975 65.245 150.865 65.665C150.835 65.795 150.775 65.895 150.685 65.965C150.595 66.025 150.505 66.055 150.415 66.055H149.23C149.12 66.055 149.02 66.02 148.93 65.95C148.85 65.87 148.815 65.77 148.825 65.65C148.855 65.2 148.97 64.775 149.17 64.375C149.37 63.975 149.635 63.625 149.965 63.325C150.305 63.025 150.7 62.79 151.15 62.62C151.6 62.44 152.085 62.35 152.605 62.35C153.235 62.35 153.78 62.455 154.24 62.665C154.7 62.865 155.08 63.13 155.38 63.46C155.68 63.78 155.9 64.14 156.04 64.54C156.19 64.93 156.265 65.32 156.265 65.71C156.265 65.96 156.25 66.2 156.22 66.43C156.19 66.65 156.12 66.875 156.01 67.105C155.9 67.325 155.74 67.56 155.53 67.81C155.32 68.05 155.04 68.31 154.69 68.59L151.915 71.125H156.085C156.195 71.125 156.29 71.165 156.37 71.245C156.45 71.325 156.49 71.42 156.49 71.53V72.595C156.49 72.705 156.45 72.8 156.37 72.88C156.29 72.96 156.195 73 156.085 73H149.08C148.97 73 148.875 72.96 148.795 72.88C148.715 72.8 148.675 72.705 148.675 72.595V71.68C148.675 71.51 148.725 71.365 148.825 71.245C148.925 71.115 149.01 71.025 149.08 70.975L153.535 67.12ZM166.11 66.415C166.12 66.605 166.125 66.815 166.125 67.045C166.125 67.275 166.125 67.51 166.125 67.75C166.125 67.99 166.125 68.225 166.125 68.455C166.125 68.685 166.12 68.895 166.11 69.085C166.08 69.665 165.99 70.205 165.84 70.705C165.7 71.195 165.47 71.625 165.15 71.995C164.84 72.355 164.43 72.64 163.92 72.85C163.42 73.05 162.805 73.15 162.075 73.15C161.335 73.15 160.715 73.05 160.215 72.85C159.715 72.64 159.305 72.355 158.985 71.995C158.675 71.625 158.445 71.195 158.295 70.705C158.155 70.205 158.07 69.665 158.04 69.085C158.02 68.705 158.01 68.275 158.01 67.795C158.01 67.305 158.02 66.87 158.04 66.49C158.07 65.91 158.155 65.37 158.295 64.87C158.445 64.36 158.675 63.92 158.985 63.55C159.305 63.18 159.715 62.89 160.215 62.68C160.715 62.46 161.335 62.35 162.075 62.35C162.805 62.35 163.42 62.455 163.92 62.665C164.43 62.865 164.84 63.15 165.15 63.52C165.47 63.88 165.7 64.31 165.84 64.81C165.99 65.3 166.08 65.835 166.11 66.415ZM160.065 69.01C160.115 69.73 160.285 70.29 160.575 70.69C160.875 71.08 161.375 71.275 162.075 71.275C162.775 71.275 163.27 71.08 163.56 70.69C163.86 70.29 164.035 69.73 164.085 69.01C164.105 68.63 164.115 68.21 164.115 67.75C164.115 67.29 164.105 66.87 164.085 66.49C164.035 65.77 163.86 65.215 163.56 64.825C163.27 64.425 162.775 64.225 162.075 64.225C161.375 64.225 160.875 64.425 160.575 64.825C160.285 65.215 160.115 65.77 160.065 66.49C160.045 66.87 160.035 67.29 160.035 67.75C160.035 68.21 160.045 68.63 160.065 69.01ZM172.505 67.12C172.805 66.88 172.995 66.635 173.075 66.385C173.165 66.135 173.21 65.905 173.21 65.695C173.21 65.285 173.085 64.94 172.835 64.66C172.585 64.37 172.17 64.225 171.59 64.225C171.04 64.225 170.635 64.36 170.375 64.63C170.125 64.9 169.945 65.245 169.835 65.665C169.805 65.795 169.745 65.895 169.655 65.965C169.565 66.025 169.475 66.055 169.385 66.055H168.2C168.09 66.055 167.99 66.02 167.9 65.95C167.82 65.87 167.785 65.77 167.795 65.65C167.825 65.2 167.94 64.775 168.14 64.375C168.34 63.975 168.605 63.625 168.935 63.325C169.275 63.025 169.67 62.79 170.12 62.62C170.57 62.44 171.055 62.35 171.575 62.35C172.205 62.35 172.75 62.455 173.21 62.665C173.67 62.865 174.05 63.13 174.35 63.46C174.65 63.78 174.87 64.14 175.01 64.54C175.16 64.93 175.235 65.32 175.235 65.71C175.235 65.96 175.22 66.2 175.19 66.43C175.16 66.65 175.09 66.875 174.98 67.105C174.87 67.325 174.71 67.56 174.5 67.81C174.29 68.05 174.01 68.31 173.66 68.59L170.885 71.125H175.055C175.165 71.125 175.26 71.165 175.34 71.245C175.42 71.325 175.46 71.42 175.46 71.53V72.595C175.46 72.705 175.42 72.8 175.34 72.88C175.26 72.96 175.165 73 175.055 73H168.05C167.94 73 167.845 72.96 167.765 72.88C167.685 72.8 167.645 72.705 167.645 72.595V71.68C167.645 71.51 167.695 71.365 167.795 71.245C167.895 71.115 167.98 71.025 168.05 70.975L172.505 67.12ZM181.689 67.12C181.989 66.88 182.179 66.635 182.259 66.385C182.349 66.135 182.394 65.905 182.394 65.695C182.394 65.285 182.269 64.94 182.019 64.66C181.769 64.37 181.354 64.225 180.774 64.225C180.224 64.225 179.819 64.36 179.559 64.63C179.309 64.9 179.129 65.245 179.019 65.665C178.989 65.795 178.929 65.895 178.839 65.965C178.749 66.025 178.659 66.055 178.569 66.055H177.384C177.274 66.055 177.174 66.02 177.084 65.95C177.004 65.87 176.969 65.77 176.979 65.65C177.009 65.2 177.124 64.775 177.324 64.375C177.524 63.975 177.789 63.625 178.119 63.325C178.459 63.025 178.854 62.79 179.304 62.62C179.754 62.44 180.239 62.35 180.759 62.35C181.389 62.35 181.934 62.455 182.394 62.665C182.854 62.865 183.234 63.13 183.534 63.46C183.834 63.78 184.054 64.14 184.194 64.54C184.344 64.93 184.419 65.32 184.419 65.71C184.419 65.96 184.404 66.2 184.374 66.43C184.344 66.65 184.274 66.875 184.164 67.105C184.054 67.325 183.894 67.56 183.684 67.81C183.474 68.05 183.194 68.31 182.844 68.59L180.069 71.125H184.239C184.349 71.125 184.444 71.165 184.524 71.245C184.604 71.325 184.644 71.42 184.644 71.53V72.595C184.644 72.705 184.604 72.8 184.524 72.88C184.444 72.96 184.349 73 184.239 73H177.234C177.124 73 177.029 72.96 176.949 72.88C176.869 72.8 176.829 72.705 176.829 72.595V71.68C176.829 71.51 176.879 71.365 176.979 71.245C177.079 71.115 177.164 71.025 177.234 70.975L181.689 67.12Z" fill="black"/>
</g>
<defs>
<clipPath id="clip0_132_42">
<rect width="276" height="77" fill="white"/>
</clipPath>
</defs>
</svg>
