<svg xmlns="http://www.w3.org/2000/svg" viewBox="0 0 299.18 82.98"><defs><style>.cls-1,.cls-10,.cls-11,.cls-12,.cls-13,.cls-14,.cls-15,.cls-16,.cls-17,.cls-18,.cls-19,.cls-20,.cls-21,.cls-22,.cls-23,.cls-24,.cls-3,.cls-4,.cls-5,.cls-6,.cls-7,.cls-8,.cls-9{fill:#fff;}.cls-2{fill:#009fe3;}.cls-3{opacity:0;}.cls-4{opacity:0.02;}.cls-5{opacity:0.05;}.cls-6{opacity:0.07;}.cls-7{opacity:0.1;}.cls-8{opacity:0.12;}.cls-9{opacity:0.14;}.cls-10{opacity:0.17;}.cls-11{opacity:0.19;}.cls-12{opacity:0.21;}.cls-13{opacity:0.24;}.cls-14{opacity:0.26;}.cls-15{opacity:0.29;}.cls-16{opacity:0.31;}.cls-17{opacity:0.33;}.cls-18{opacity:0.36;}.cls-19{opacity:0.38;}.cls-20{opacity:0.4;}.cls-21{opacity:0.43;}.cls-22{opacity:0.45;}.cls-23{opacity:0.48;}.cls-24{opacity:0.5;}</style></defs><g id="Layer_2" data-name="Layer 2"><g id="Layer_1-2" data-name="Layer 1"><path class="cls-1" d="M159.3,17.85a4.8,4.8,0,0,0,2.37.57h1.81a4.84,4.84,0,0,0,2.38-.57,4,4,0,0,0,1.6-1.61,4.83,4.83,0,0,0,.57-2.39V10.78a4.89,4.89,0,0,0-.57-2.4,4,4,0,0,0-1.6-1.6,4.84,4.84,0,0,0-2.38-.57h-1.81a4.8,4.8,0,0,0-2.37.57,4.06,4.06,0,0,0-1.61,1.6,4.89,4.89,0,0,0-.57,2.4v3.07a4.83,4.83,0,0,0,.57,2.39A4,4,0,0,0,159.3,17.85Zm.17-7A2.8,2.8,0,0,1,160.08,9a2,2,0,0,1,1.59-.72h1.81a2,2,0,0,1,1.59.72,2.75,2.75,0,0,1,.61,1.87v2.87a2.77,2.77,0,0,1-.61,1.87,2,2,0,0,1-1.59.72h-1.81a2,2,0,0,1-1.59-.72,2.82,2.82,0,0,1-.61-1.87Z"/><path class="cls-1" d="M172.94,15.5h4.47l1,2.78h2.45L176.66,7.37a1.47,1.47,0,0,0-1.5-1H174.1l-4.67,11.93h2.45Zm2.23-6.27h0l1.59,4.29h-3.21Z"/><path class="cls-1" d="M189.43,16a2.14,2.14,0,0,1-1.22.32h-1.89a1.58,1.58,0,0,1-1.25-.51,2,2,0,0,1-.45-1.39H182.3a3.93,3.93,0,0,0,1.06,2.93,4,4,0,0,0,2.93,1.05h2a5.31,5.31,0,0,0,2.1-.39,3.13,3.13,0,0,0,1.4-1.08,2.65,2.65,0,0,0,.5-1.6V14.22a2.24,2.24,0,0,0-.81-1.78,5,5,0,0,0-2.37-1L186,10.93c-.79-.13-1.18-.49-1.18-1V9.42a1,1,0,0,1,.44-.82,1.91,1.91,0,0,1,1.15-.31h1.92a1.34,1.34,0,0,1,1,.44,1.65,1.65,0,0,1,.39,1.15H192A3.74,3.74,0,0,0,191.56,8a3.28,3.28,0,0,0-1.32-1.29,4,4,0,0,0-2-.46h-1.92a5.27,5.27,0,0,0-2.07.38,3.14,3.14,0,0,0-1.39,1.06,2.72,2.72,0,0,0-.48,1.6v.95a2.38,2.38,0,0,0,.79,1.85,4.52,4.52,0,0,0,2.33,1l3.14.53c.81.13,1.22.48,1.22,1v.58A1,1,0,0,1,189.43,16Z"/><rect class="cls-1" x="195.05" y="6.35" width="2.35" height="11.93"/><path class="cls-1" d="M207.4,16a2.14,2.14,0,0,1-1.22.32h-1.89a1.57,1.57,0,0,1-1.25-.51,1.94,1.94,0,0,1-.46-1.39h-2.31a4,4,0,0,0,1,2.93,4,4,0,0,0,2.93,1.05h2a5.25,5.25,0,0,0,2.1-.39A3.22,3.22,0,0,0,209.72,17a2.71,2.71,0,0,0,.5-1.6V14.22a2.22,2.22,0,0,0-.82-1.78,4.91,4.91,0,0,0-2.37-1l-3.12-.55c-.78-.13-1.17-.49-1.17-1V9.42a1,1,0,0,1,.43-.82,1.93,1.93,0,0,1,1.15-.31h1.93a1.34,1.34,0,0,1,1,.44,1.65,1.65,0,0,1,.39,1.15H210A3.85,3.85,0,0,0,209.53,8a3.28,3.28,0,0,0-1.32-1.29,4,4,0,0,0-2-.46h-1.93a5.34,5.34,0,0,0-2.07.38,3.05,3.05,0,0,0-1.38,1.06,2.73,2.73,0,0,0-.49,1.6v.95a2.39,2.39,0,0,0,.8,1.85,4.49,4.49,0,0,0,2.32,1l3.14.53c.82.13,1.23.48,1.23,1v.58A1,1,0,0,1,207.4,16Z"/><rect class="cls-1" x="157.64" y="23.54" width="2.38" height="12.08"/><polygon class="cls-1" points="172.4 23.62 170.09 23.62 170.09 31.73 164.37 23.62 162.27 23.62 162.27 35.55 164.57 35.55 164.57 27.44 170.3 35.55 172.4 35.55 172.4 23.62"/><polygon class="cls-1" points="184.57 23.62 174.65 23.62 174.65 25.66 178.43 25.66 178.43 35.55 180.78 35.55 180.78 25.66 184.57 25.66 184.57 23.62"/><path class="cls-1" d="M195.92,25.67V23.62h-9.1V34a1.53,1.53,0,0,0,.46,1.16,1.65,1.65,0,0,0,1.19.44h7.45v-2h-6.75v-3h6.24v-2h-6.24V25.67Z"/><path class="cls-1" d="M200.86,31.27h2.88a1.41,1.41,0,0,1,1,.36,2.4,2.4,0,0,1,.61,1.09l.9,2.83h2.44l-.95-3a6.69,6.69,0,0,0-.56-1.28,2.6,2.6,0,0,0-.83-.82v0a3.05,3.05,0,0,0,1.46-1,2.43,2.43,0,0,0,.5-1.54v-1.2a2.79,2.79,0,0,0-.94-2.2,3.66,3.66,0,0,0-2.5-.83h-6.34V35.55h2.35Zm0-5.6h4a1.13,1.13,0,0,1,.82.29,1.09,1.09,0,0,1,.3.8v1.1a1.28,1.28,0,0,1-.41,1,1.54,1.54,0,0,1-1.12.38h-3.55Z"/><polygon class="cls-1" points="213.36 27.44 219.08 35.55 221.18 35.55 221.18 23.62 218.88 23.62 218.88 31.73 213.15 23.62 211.06 23.62 211.06 35.55 213.36 35.55 213.36 27.44"/><path class="cls-1" d="M226.81,32.77h4.46l1,2.78h2.46l-4.25-10.91a1.47,1.47,0,0,0-1.5-1H228l-4.67,11.93h2.46ZM229,26.5h0l1.58,4.3h-3.2Z"/><polygon class="cls-1" points="238.11 35.55 240.46 35.55 240.46 25.66 244.25 25.66 244.25 23.62 234.32 23.62 234.32 25.66 238.11 25.66 238.11 35.55"/><rect class="cls-1" x="246.66" y="23.62" width="2.35" height="11.93"/><path class="cls-1" d="M254.12,35.12a4.84,4.84,0,0,0,2.38.57h1.81a4.8,4.8,0,0,0,2.37-.57,4,4,0,0,0,1.61-1.61,4.83,4.83,0,0,0,.57-2.39V28.05a4.83,4.83,0,0,0-.57-2.39,4,4,0,0,0-1.61-1.61,4.8,4.8,0,0,0-2.37-.57H256.5a4.84,4.84,0,0,0-2.38.57,4,4,0,0,0-1.6,1.61,4.83,4.83,0,0,0-.57,2.39v3.07a4.83,4.83,0,0,0,.57,2.39A4,4,0,0,0,254.12,35.12Zm.18-7a2.77,2.77,0,0,1,.61-1.87,2,2,0,0,1,1.59-.72h1.81a2,2,0,0,1,1.59.72,2.82,2.82,0,0,1,.61,1.87V31a2.8,2.8,0,0,1-.61,1.87,2,2,0,0,1-1.59.72H256.5a2,2,0,0,1-1.59-.72A2.75,2.75,0,0,1,254.3,31Z"/><polygon class="cls-1" points="267.92 27.44 273.65 35.55 275.75 35.55 275.75 23.62 273.44 23.62 273.44 31.73 267.72 23.62 265.62 23.62 265.62 35.55 267.92 35.55 267.92 27.44"/><path class="cls-1" d="M281.37,32.77h4.47l1,2.78h2.46l-4.24-10.91a1.49,1.49,0,0,0-1.5-1h-1.06l-4.67,11.93h2.45Zm2.23-6.27h0l1.58,4.3H282Z"/><path class="cls-1" d="M292.71,33.51V23.62h-2.36V34a1.51,1.51,0,0,0,.46,1.15,1.65,1.65,0,0,0,1.2.43h7.17v-2Z"/><path class="cls-1" d="M159.21,52.4a4.67,4.67,0,0,0,2.31.56h1.84a4.46,4.46,0,0,0,2.28-.57,3.88,3.88,0,0,0,1.54-1.62,5.24,5.24,0,0,0,.54-2.43h-2.31a2.83,2.83,0,0,1-.57,1.84,1.83,1.83,0,0,1-1.48.7h-1.84a1.8,1.8,0,0,1-1.48-.71,2.86,2.86,0,0,1-.57-1.85V45.39a2.86,2.86,0,0,1,.58-1.85,1.9,1.9,0,0,1,1.54-.71h1.8a1.82,1.82,0,0,1,1.44.63,2.4,2.4,0,0,1,.54,1.64h2.32a4.69,4.69,0,0,0-.54-2.28,3.75,3.75,0,0,0-1.51-1.52,4.52,4.52,0,0,0-2.25-.55h-1.8a4.73,4.73,0,0,0-2.35.57,3.86,3.86,0,0,0-1.56,1.59,5,5,0,0,0-.56,2.38v3.13a4.92,4.92,0,0,0,.55,2.38A3.89,3.89,0,0,0,159.21,52.4Z"/><path class="cls-1" d="M174.23,52.39a4.84,4.84,0,0,0,2.38.57h1.8a4.84,4.84,0,0,0,2.38-.57,4,4,0,0,0,1.6-1.6,4.89,4.89,0,0,0,.57-2.4V45.32a4.83,4.83,0,0,0-.57-2.39,4.06,4.06,0,0,0-1.6-1.61,4.84,4.84,0,0,0-2.38-.57h-1.8a4.84,4.84,0,0,0-2.38.57,4.06,4.06,0,0,0-1.6,1.61,4.73,4.73,0,0,0-.58,2.39v3.07a4.79,4.79,0,0,0,.58,2.4A4,4,0,0,0,174.23,52.39Zm.18-7a2.82,2.82,0,0,1,.6-1.87,2,2,0,0,1,1.6-.72h1.8a2,2,0,0,1,1.6.72,2.82,2.82,0,0,1,.6,1.87v2.87a2.8,2.8,0,0,1-.6,1.87,2,2,0,0,1-1.6.72h-1.8a2,2,0,0,1-1.6-.72,2.8,2.8,0,0,1-.6-1.87Z"/><polygon class="cls-1" points="190.24 44.71 195.97 52.82 198.07 52.82 198.07 40.89 195.76 40.89 195.76 49 190.04 40.89 187.94 40.89 187.94 52.82 190.24 52.82 190.24 44.71"/><polygon class="cls-1" points="212.32 42.94 212.32 40.89 203.38 40.89 203.38 52.82 205.74 52.82 205.74 48.19 211.69 48.19 211.69 46.14 205.74 46.14 205.74 42.94 212.32 42.94"/><path class="cls-1" d="M226,42.94v-2h-9.11V51.22a1.57,1.57,0,0,0,.46,1.16,1.69,1.69,0,0,0,1.2.44H226v-2h-6.75v-3h6.24v-2h-6.24V42.94Z"/><path class="cls-1" d="M240.08,46.66a2.49,2.49,0,0,0,.5-1.54v-1.2a2.77,2.77,0,0,0-1-2.19,3.62,3.62,0,0,0-2.5-.84h-6.34V52.82h2.36V48.54H236a1.39,1.39,0,0,1,1,.36,2.4,2.4,0,0,1,.61,1.09l.91,2.83H241l-.95-3a6.75,6.75,0,0,0-.55-1.28,2.71,2.71,0,0,0-.83-.82v0A3.15,3.15,0,0,0,240.08,46.66Zm-1.85-1.53a1.31,1.31,0,0,1-.41,1,1.58,1.58,0,0,1-1.13.39h-3.54V42.94h3.95a1.13,1.13,0,0,1,.82.29,1.09,1.09,0,0,1,.31.8Z"/><path class="cls-1" d="M247.21,52.82h7.45v-2h-6.75v-3h6.24v-2h-6.24V42.94h6.75v-2h-9.1V51.22a1.53,1.53,0,0,0,.46,1.16A1.65,1.65,0,0,0,247.21,52.82Z"/><polygon class="cls-1" points="267.29 49 261.56 40.89 259.46 40.89 259.46 52.82 261.77 52.82 261.77 44.71 267.49 52.82 269.59 52.82 269.59 40.89 267.29 40.89 267.29 49"/><path class="cls-1" d="M274.57,45.29v3.13a5,5,0,0,0,.54,2.38,3.92,3.92,0,0,0,1.55,1.6A4.65,4.65,0,0,0,279,53h1.84a4.49,4.49,0,0,0,2.28-.57,3.86,3.86,0,0,0,1.53-1.62,5.12,5.12,0,0,0,.55-2.43h-2.32a2.83,2.83,0,0,1-.57,1.84,1.8,1.8,0,0,1-1.47.7H279a1.82,1.82,0,0,1-1.49-.71,2.91,2.91,0,0,1-.56-1.85V45.39a2.81,2.81,0,0,1,.58-1.85,1.9,1.9,0,0,1,1.53-.71h1.81a1.79,1.79,0,0,1,1.43.63,2.36,2.36,0,0,1,.55,1.64h2.32a4.69,4.69,0,0,0-.54-2.28,3.81,3.81,0,0,0-1.51-1.52,4.57,4.57,0,0,0-2.25-.55H279a4.72,4.72,0,0,0-2.34.57,3.82,3.82,0,0,0-1.57,1.59A5,5,0,0,0,274.57,45.29Z"/><path class="cls-1" d="M290.08,51.22a1.53,1.53,0,0,0,.46,1.16,1.68,1.68,0,0,0,1.19.44h7.45v-2h-6.75v-3h6.24v-2h-6.24V42.94h6.75v-2h-9.1Z"/><path class="cls-1" d="M160.31,77.6a1.9,1.9,0,0,1,.63-.54l4.16-2.42a3.26,3.26,0,0,0,1.21-1.14,3.14,3.14,0,0,0,.39-1.6v-.55A3,3,0,0,0,165,68.57a4.31,4.31,0,0,0-1.92-.4h-1.62a3.66,3.66,0,0,0-2.78,1,4.09,4.09,0,0,0-1,2.94H160a2.25,2.25,0,0,1,.38-1.39,1.26,1.26,0,0,1,1-.49H163a1.4,1.4,0,0,1,.93.29,1,1,0,0,1,.35.78v.55a1.23,1.23,0,0,1-.18.62,1.25,1.25,0,0,1-.49.48l-4.28,2.56a3.26,3.26,0,0,0-1.3,1.31,4,4,0,0,0-.38,1.8v1.72h9.08V78.32h-6.68A1.12,1.12,0,0,1,160.31,77.6Z"/><path class="cls-1" d="M177.06,68.7a4.16,4.16,0,0,0-2.11-.53h-1.83a4.31,4.31,0,0,0-2.15.53,3.59,3.59,0,0,0-1.45,1.49,4.73,4.73,0,0,0-.51,2.23v3.86a4.71,4.71,0,0,0,.52,2.23A3.71,3.71,0,0,0,171,80a4.3,4.3,0,0,0,2.14.53H175a4.21,4.21,0,0,0,2.13-.53,3.56,3.56,0,0,0,1.41-1.49,4.82,4.82,0,0,0,.5-2.23V72.42a4.73,4.73,0,0,0-.51-2.23A3.64,3.64,0,0,0,177.06,68.7Zm-.47,7.62a2.44,2.44,0,0,1-.45,1.53,1.5,1.5,0,0,1-1.22.57h-1.76a1.59,1.59,0,0,1-1.28-.57,2.33,2.33,0,0,1-.48-1.53V72.38a2.33,2.33,0,0,1,.48-1.53,1.59,1.59,0,0,1,1.28-.57h1.76a1.5,1.5,0,0,1,1.22.57,2.44,2.44,0,0,1,.45,1.53Z"/><path class="cls-1" d="M184,77.6a1.9,1.9,0,0,1,.63-.54l4.16-2.42A3.26,3.26,0,0,0,190,73.5a3.14,3.14,0,0,0,.39-1.6v-.55a2.94,2.94,0,0,0-1.74-2.78,4.31,4.31,0,0,0-1.92-.4h-1.62a3.66,3.66,0,0,0-2.78,1,4.09,4.09,0,0,0-1,2.94h2.38a2.25,2.25,0,0,1,.38-1.39,1.27,1.27,0,0,1,1.06-.49h1.58a1.4,1.4,0,0,1,.93.29,1,1,0,0,1,.35.78v.55a1.23,1.23,0,0,1-.18.62,1.25,1.25,0,0,1-.49.48l-4.28,2.56a3.26,3.26,0,0,0-1.3,1.31,4,4,0,0,0-.38,1.8v1.72h9.08V78.32h-6.68A1.12,1.12,0,0,1,184,77.6Z"/><path class="cls-1" d="M195.07,77.6a2,2,0,0,1,.63-.54l4.16-2.42a3.3,3.3,0,0,0,1.22-1.14,3.14,3.14,0,0,0,.39-1.6v-.55a3.06,3.06,0,0,0-.46-1.66,3,3,0,0,0-1.29-1.12,4.29,4.29,0,0,0-1.91-.4h-1.63a3.63,3.63,0,0,0-2.77,1,4.1,4.1,0,0,0-1,2.94h2.39a2.19,2.19,0,0,1,.38-1.39,1.24,1.24,0,0,1,1.05-.49h1.59a1.37,1.37,0,0,1,.92.29,1,1,0,0,1,.35.78v.55a1.23,1.23,0,0,1-.18.62,1.19,1.19,0,0,1-.49.48l-4.28,2.56a3.23,3.23,0,0,0-1.29,1.31,3.89,3.89,0,0,0-.38,1.8v1.72h9.08V78.32h-6.68A1.18,1.18,0,0,1,195.07,77.6Z"/><polygon class="cls-1" points="239.93 68.6 239.91 68.6 238.29 72.95 241.53 72.95 239.93 68.6"/><path class="cls-1" d="M269.51,75.8h1.83a2,2,0,0,0,1.62-.73,2.81,2.81,0,0,0,.61-1.89v-2.9a2.82,2.82,0,0,0-.61-1.9,2,2,0,0,0-1.62-.73h-1.83a2,2,0,0,0-1.61.73,2.82,2.82,0,0,0-.61,1.9v2.9a2.81,2.81,0,0,0,.61,1.89A2,2,0,0,0,269.51,75.8Z"/><path class="cls-1" d="M157.64,62h53.25V83h88.29V60.47H157.64ZM287,73l-3.18-.54a4.52,4.52,0,0,1-2.36-1,2.43,2.43,0,0,1-.8-1.87v-1a2.69,2.69,0,0,1,.49-1.61,3.13,3.13,0,0,1,1.4-1.08,5.25,5.25,0,0,1,2.1-.38h1.95a4.08,4.08,0,0,1,2,.46A3.31,3.31,0,0,1,290,67.32a3.8,3.8,0,0,1,.48,1.94h-2.35a1.66,1.66,0,0,0-.4-1.17,1.36,1.36,0,0,0-1.05-.44h-1.95a2.05,2.05,0,0,0-1.17.31,1,1,0,0,0-.44.83v.47c0,.57.4.93,1.19,1.07l3.16.55a4.93,4.93,0,0,1,2.4,1,2.24,2.24,0,0,1,.83,1.8V74.8a2.69,2.69,0,0,1-.51,1.62,3.3,3.3,0,0,1-1.42,1.1,5.4,5.4,0,0,1-2.13.39h-2a3.71,3.71,0,0,1-4-4h2.35a2.06,2.06,0,0,0,.45,1.41,1.63,1.63,0,0,0,1.27.51h1.92a2.18,2.18,0,0,0,1.23-.32,1,1,0,0,0,.48-.85V74C288.28,73.48,287.86,73.12,287,73ZM264.9,70.17a5,5,0,0,1,.58-2.42,4,4,0,0,1,1.63-1.62,4.79,4.79,0,0,1,2.4-.58h1.83a4.83,4.83,0,0,1,2.41.58,4,4,0,0,1,1.62,1.62,4.84,4.84,0,0,1,.58,2.42v3.11a4.91,4.91,0,0,1-.58,2.43,4.07,4.07,0,0,1-1.62,1.62,4.94,4.94,0,0,1-2.41.58h-1.83a4.9,4.9,0,0,1-2.4-.58,4.16,4.16,0,0,1-1.63-1.62,5,5,0,0,1-.58-2.43Zm-15.53,0a5.07,5.07,0,0,1,.56-2.41,3.86,3.86,0,0,1,1.59-1.61,4.78,4.78,0,0,1,2.37-.57h1.94a4.84,4.84,0,0,1,2.27.51,3.74,3.74,0,0,1,1.53,1.47,4.39,4.39,0,0,1,.55,2.19h-2.35a2.1,2.1,0,0,0-.55-1.5,1.94,1.94,0,0,0-1.45-.57h-1.94a1.9,1.9,0,0,0-1.55.72,2.87,2.87,0,0,0-.59,1.87v3a2.84,2.84,0,0,0,.58,1.87,1.86,1.86,0,0,0,1.53.72h2a1.86,1.86,0,0,0,1.46-.64,2.24,2.24,0,0,0,.58-1.59v-.38h-3.35V71.12h5.7v2.45a4.63,4.63,0,0,1-.55,2.25,3.89,3.89,0,0,1-1.56,1.53,4.59,4.59,0,0,1-2.28.56h-2a4.73,4.73,0,0,1-2.35-.57,3.92,3.92,0,0,1-1.58-1.62,5,5,0,0,1-.56-2.41Zm-10.55-4.46h1.07a1.49,1.49,0,0,1,1.52,1l4.3,11h-2.49L242.17,75h-4.52l-1.07,2.82h-2.49Zm-17.12,0h2.38v10h6.56v2.07h-7.27a1.68,1.68,0,0,1-1.21-.44,1.54,1.54,0,0,1-.46-1.17Z"/><path class="cls-1" d="M72,66.74a40.57,40.57,0,0,0,0-52.06h0l-.26-.31q-.6-.7-1.23-1.38c-.4-.43-.81-.86-1.23-1.27a40.71,40.71,0,1,0,.06,57.93c.42-.42.83-.84,1.23-1.27s.82-.91,1.22-1.38l.21-.26ZM63.82,44.27c-.12.77-.28,1.53-.47,2.28a23.88,23.88,0,0,1-1.1,3.25,23.05,23.05,0,0,1-2.16,4,23.23,23.23,0,0,1-4.52,5q-.87.72-1.8,1.35c-.31.21-.63.42-1,.61a23.33,23.33,0,0,1-24.22,0c-.33-.19-.64-.4-1-.61a21.65,21.65,0,0,1-1.8-1.35,23.5,23.5,0,0,1-6.68-8.94,23.88,23.88,0,0,1-1.1-3.25c-.19-.75-.35-1.51-.47-2.28a23.38,23.38,0,1,1,46.22,0Z"/><path class="cls-1" d="M72,3.07V11a43,43,0,0,1,0,59.42l-.21.22V81.42H89.39V4.07h0V0H72Z"/><path class="cls-1" d="M103,1.7A40.52,40.52,0,0,0,91.62,7.13l0,29.29a23.36,23.36,0,0,1,40.65-11l14.09-10.16A40.74,40.74,0,0,0,103,1.7Z"/><path class="cls-1" d="M121.3,63.12A23.41,23.41,0,0,1,92.22,47.39a23.15,23.15,0,0,1-.56-2.29l0,29.22a40.79,40.79,0,0,0,23,7.1h.21A40.61,40.61,0,0,0,146,66.64l-15.41-8.85A23.22,23.22,0,0,1,121.3,63.12Z"/><path class="cls-2" d="M46.5,34.53c-2.1-3-4.26-6-5.4-9.92-1.13,3.92-3.3,7-5.39,9.92-2.61,3.67-5.08,7.14-5.08,11.81a10.48,10.48,0,0,0,21,0C51.58,41.67,49.11,38.2,46.5,34.53Z"/><path class="cls-3" d="M49.53,43.21c.72-.39,1.17,4.72-1.1,8.51-.66,1.11-3.73,4.08-4.25,3.51-.39-.42,1.17-3.36,1.86-4.63C47.3,48.27,48.1,44,49.53,43.21Z"/><path class="cls-4" d="M49.48,43.54c.7-.36,1.11,4.54-1.07,8.18-.64,1.08-3.61,4-4.1,3.4s1.13-3.23,1.79-4.45C47.32,48.42,48.11,44.27,49.48,43.54Z"/><path class="cls-5" d="M49.43,43.88c.67-.35,1,4.34-1,7.84-.63,1-3.49,3.81-4,3.29s1.1-3.1,1.74-4.27C47.35,48.57,48.12,44.56,49.43,43.88Z"/><path class="cls-6" d="M49.38,44.21c.65-.33,1,4.15-1,7.51-.61,1-3.37,3.67-3.82,3.17s1.07-3,1.68-4.09C47.37,48.73,48.13,44.86,49.38,44.21Z"/><path class="cls-7" d="M49.33,44.55c.62-.32.94,4-1,7.17-.58,1-3.24,3.53-3.68,3.06s1-2.83,1.63-3.91C47.39,48.88,48.14,45.16,49.33,44.55Z"/><path class="cls-8" d="M49.28,44.88c.6-.3.88,3.76-.94,6.83-.56.95-3.12,3.4-3.53,3s1-2.7,1.56-3.73C47.42,49,48.15,45.46,49.28,44.88Z"/><path class="cls-9" d="M49.23,45.22c.58-.29.83,3.56-.91,6.49-.54.92-3,3.26-3.38,2.85s1-2.57,1.5-3.56C47.44,49.18,48.15,45.75,49.23,45.22Z"/><path class="cls-10" d="M49.19,45.55c.54-.26.76,3.37-.89,6.16-.52.88-2.87,3.12-3.24,2.73S46,52,46.51,51.07C47.46,49.33,48.16,46.05,49.19,45.55Z"/><path class="cls-11" d="M49.14,45.89c.52-.25.7,3.17-.86,5.82-.49.85-2.74,3-3.09,2.62s.9-2.3,1.39-3.2C47.49,49.49,48.17,46.35,49.14,45.89Z"/><path class="cls-12" d="M49.09,46.22c.49-.23.64,3-.83,5.49-.47.81-2.62,2.84-2.95,2.51s.87-2.17,1.34-3C47.51,49.64,48.18,46.65,49.09,46.22Z"/><path class="cls-13" d="M49,46.56c.47-.22.58,2.78-.8,5.15-.45.78-2.49,2.7-2.8,2.4s.83-2,1.27-2.84C47.53,49.79,48.19,47,49,46.56Z"/><path class="cls-14" d="M49,46.89c.45-.2.52,2.6-.77,4.82-.43.75-2.37,2.56-2.65,2.28s.79-1.9,1.21-2.66C47.56,49.94,48.2,47.24,49,46.89Z"/><path class="cls-15" d="M48.94,47.23c.42-.18.47,2.4-.73,4.48-.42.71-2.25,2.42-2.52,2.17s.77-1.77,1.16-2.48C47.58,50.09,48.21,47.54,48.94,47.23Z"/><path class="cls-16" d="M48.89,47.56c.4-.16.41,2.21-.7,4.15-.39.68-2.13,2.28-2.37,2.06s.73-1.64,1.1-2.3C47.6,50.25,48.22,47.84,48.89,47.56Z"/><path class="cls-17" d="M48.85,47.9c.37-.15.34,2-.68,3.81-.37.65-2,2.15-2.23,1.94s.7-1.51,1-2.12C47.62,50.4,48.23,48.14,48.85,47.9Z"/><path class="cls-18" d="M48.8,48.23c.34-.13.29,1.82-.65,3.48-.35.61-1.88,2-2.08,1.83s.66-1.38,1-1.94C47.65,50.55,48.24,48.44,48.8,48.23Z"/><path class="cls-19" d="M48.75,48.57c.32-.11.23,1.62-.62,3.14-.33.58-1.75,1.87-1.93,1.72s.62-1.25.92-1.76C47.67,50.7,48.25,48.74,48.75,48.57Z"/><path class="cls-20" d="M48.7,48.9c.3-.09.17,1.44-.59,2.81-.3.54-1.63,1.73-1.79,1.61s.6-1.12.87-1.59C47.69,50.85,48.26,49,48.7,48.9Z"/><path class="cls-21" d="M48.65,49.24c.27-.08.12,1.24-.56,2.47-.28.51-1.5,1.59-1.64,1.49s.56-1,.81-1.4C47.72,51,48.27,49.34,48.65,49.24Z"/><path class="cls-22" d="M48.6,49.57c.25,0,.06,1-.53,2.14a4.39,4.39,0,0,1-1.5,1.38c-.1-.06.53-.85.75-1.22C47.74,51.16,48.28,49.64,48.6,49.57Z"/><path class="cls-23" d="M48.55,49.91c.23,0,0,.85-.5,1.8A4.32,4.32,0,0,1,46.7,53c-.09,0,.49-.72.69-1C47.76,51.31,48.29,50,48.55,49.91Z"/><path class="cls-24" d="M48.51,50.24c.19,0-.06.66-.48,1.47a4.28,4.28,0,0,1-1.2,1.16c-.08,0,.46-.59.63-.87C47.79,51.46,48.3,50.25,48.51,50.24Z"/></g></g></svg>